<svg width="176" height="38" viewBox="0 0 176 38" fill="none" xmlns="http://www.w3.org/2000/svg">
<path d="M4.35356 0.646446C4.15829 0.451183 3.84171 0.451183 3.64645 0.646446L0.464468 3.82843C0.269205 4.02369 0.269205 4.34027 0.464468 4.53553C0.65973 4.7308 0.976312 4.7308 1.17157 4.53553L4 1.70711L6.82843 4.53553C7.02369 4.7308 7.34027 4.7308 7.53554 4.53553C7.7308 4.34027 7.7308 4.02369 7.53554 3.82843L4.35356 0.646446ZM4.5 38L4.5 1L3.5 1L3.5 38L4.5 38Z" fill="white"/>
<path d="M60.3536 0.646446C60.1583 0.451183 59.8417 0.451183 59.6464 0.646446L56.4645 3.82843C56.2692 4.02369 56.2692 4.34027 56.4645 4.53553C56.6597 4.7308 56.9763 4.7308 57.1716 4.53553L60 1.70711L62.8284 4.53553C63.0237 4.7308 63.3403 4.7308 63.5355 4.53553C63.7308 4.34027 63.7308 4.02369 63.5355 3.82843L60.3536 0.646446ZM60.5 38L60.5 1L59.5 1L59.5 38L60.5 38Z" fill="white"/>
<path d="M116.354 0.646446C116.158 0.451183 115.842 0.451183 115.646 0.646446L112.464 3.82843C112.269 4.02369 112.269 4.34027 112.464 4.53553C112.66 4.7308 112.976 4.7308 113.172 4.53553L116 1.70711L118.828 4.53553C119.024 4.7308 119.34 4.7308 119.536 4.53553C119.731 4.34027 119.731 4.02369 119.536 3.82843L116.354 0.646446ZM116.5 38L116.5 1L115.5 1L115.5 38L116.5 38Z" fill="white"/>
<path d="M172.354 0.646446C172.158 0.451183 171.842 0.451183 171.646 0.646446L168.464 3.82843C168.269 4.02369 168.269 4.34027 168.464 4.53553C168.66 4.7308 168.976 4.7308 169.172 4.53553L172 1.70711L174.828 4.53553C175.024 4.7308 175.34 4.7308 175.536 4.53553C175.731 4.34027 175.731 4.02369 175.536 3.82843L172.354 0.646446ZM172.5 38L172.5 1L171.5 1L171.5 38L172.5 38Z" fill="white"/>
</svg>
