<svg version="1.1" xmlns="http://www.w3.org/2000/svg" xmlns:xlink="http://www.w3.org/1999/xlink" x="0px" y="0px" width="604.5px"
	 height="997.6px" viewBox="0 0 604.5 997.6" style="overflow:visible;enable-background:new 0 0 604.5 997.6;"
	 xml:space="preserve">
<style type="text/css">
	.st0{fill:none;stroke:#B7B7B8;stroke-width:8.5039;stroke-miterlimit:22.9256;}
	.st1{fill:none;stroke:#B7B7B8;stroke-width:8.5039;stroke-linejoin:round;}
</style>
<defs>
</defs>
<path class="st0" d="M170.3,83.7h263.8c91.4,0,166.1,75.6,166.1,167.9v573.9c0,92.3-74.7,167.9-166.1,167.9H170.3
	C79,993.3,4.3,917.8,4.3,825.4V251.6C4.3,159.2,79,83.7,170.3,83.7z"/>
<g id="View_Layer_x5F_LineSet_2_" inkscape:groupmode="lineset" xmlns:inkscape="http://www.inkscape.org/namespaces/inkscape">
	
		<g id="strokes_2_" inkscape:groupmode="layer" inkscape:label="strokes" xmlns:inkscape="http://www.inkscape.org/namespaces/inkscape">
		<path class="st1" d="M360.8,78.3L360.8,78.3l0.9-0.6l1.1-0.8l0.8-0.7l0.7-0.8l0.5-0.8l0.6-1.1l0.5-1.4l0.4-1.6l0.3-1.8l0.3-1.9
			l0.2-2l0.3-2l0.3-1.9l0.4-1.8l0.5-1.6l0.6-1.4l0.7-1.3l0.7-1.1l0.7-1l0.7-1l0.6-0.9l0.5-0.9l0.4-0.9l0.3-0.8l0.2-0.8l0.1-0.8
			l-0.1-0.8l-0.1-0.7l-0.2-0.8l-0.3-0.8l-0.4-0.9l-0.5-0.9l-0.6-0.9l-0.7-1l-0.7-1.1l-0.7-1.2l-0.7-1.4l-0.7-1.6l-0.5-1.5l-0.1-0.4"
			/>
		<path class="st1" d="M236.3,24.5l-0.7,1l-0.1,0.2l-0.5,0.8l-0.7,0.9l-0.7,0.9l-0.6,0.9l-0.9,1.4l-0.5,0.9l-0.4,0.9l-0.3,0.9
			l-0.2,0.9l-0.2,1.4l-0.1,0.9l0.1,0.9l0.2,0.9l0.3,0.9l0.5,1.4l0.4,0.9l0.5,0.9l0.6,0.9l0.7,1l0.7,1.1l0.6,1.2l0.6,1.4l0.4,1.1"/>
		<path class="st1" d="M235.6,47.7l0.2,0.9l0.2,1"/>
		<path class="st1" d="M263.3,6.7l-4.4,0.7l-4,0.8L251.4,9l-3,0.9l-1,0.3l-2.5,0.9l-2,1l-0.9,0.6l-1.4,1l-0.7,0.8l-0.8,1.1l-0.5,1
			l-0.4,1.1l-0.3,1.2l-0.3,1.2l-0.3,1.3l-0.3,1.2l-0.4,1.2l-0.5,1.1l-0.5,0.9"/>
		<path class="st1" d="M367.6,33.1l-0.4-1.6l-0.4-2.2l-0.4-2.3l-0.3-2.3l-0.3-2.2l-0.4-2l-0.5-1.7l-0.3-1.1l-0.6-1.4l-0.8-1.1
			l-0.8-1l-1-0.8l-1.4-1l-1.9-1l-2.4-1l-1-0.4l-1.9-0.6l-1-0.3l-2.4-0.7l-3.9-0.9l-4.4-0.8L336.5,6l-5.1-0.6L325.9,5l-5.7-0.3
			l-5.8-0.2l-6-0.1h-6l-4.8,0.1h-1.2l0,0l0,0"/>
		<path class="st1" d="M236.9,67.2L236.9,67.2l0.2,1.6l0.3,1.5l0.4,1.4l0.5,1.3l0.6,1.1l0.3,0.5l0.7,1l0.8,0.8l0.8,0.6l1,0.7
			l0.8,0.6l0.6,0.5"/>
		<path class="st1" d="M236.1,49.5L236.1,49.5l0.3,2l0.2,2.2l0.1,2.2l0.1,2v1.8l-0.1,1.6l-0.1,1.4v1v1.5l0.2,1.6l0.1,0.4"/>
		<path class="st1" d="M243,78.1l0.8,0.6l0,0l0.7,0.8l0.4,0.6"/>
		<path class="st1" d="M359.4,79.9l0.2-0.3l0.7-0.8l0.5-0.4l0.3-0.3"/>
		<path class="st1" d="M244.7,79.8l0.1,0.4l0.3,1l0.3,1.6l0.2,1.7v0.7"/>
		<path class="st1" d="M358.5,85.1v-0.7l0.2-1.7l0.3-1.6l0.4-1.2v-0.1"/>
		<path class="st1" d="M296.4,4.3l-5.7,0.2L285,4.8l-5.6,0.3L274,5.5L268.9,6l-0.7,0.1l-0.5,0.1l-4.4,0.6l0.8-0.1l3.6-0.4"/>
		<path class="st1" d="M297.6,4.3h-1.1h-0.1l0,0l-6,0.2"/>
	</g>
</g>
</svg>
