<svg width="32" height="28" viewBox="0 0 32 28" fill="none" xmlns="http://www.w3.org/2000/svg">
<path d="M26.4018 20.6936C25.9323 20.4799 25.3905 20.3731 24.8849 20.3731H10.149L9.60722 17.2388H28.1716L32 4.66586H7.44018L6.60948 0H0V2.24389H4.65914L7.87359 20.7649C5.99548 21.6909 5.23702 23.9348 6.13995 25.7869C7.04289 27.639 9.3544 28.3869 11.2325 27.4965C13.0384 26.6061 13.833 24.4691 13.0384 22.617H21.4176C20.5869 24.5047 21.4537 26.7129 23.3679 27.5321C25.2822 28.3513 27.5214 27.4965 28.3521 25.6088C29.219 23.7211 28.316 21.5128 26.4018 20.6936Z" fill="white"/>
</svg>
