<?xml version="1.0" encoding="UTF-8"?>
<svg fill="#FFFFFF" width="100pt" height="100pt" version="1.1" viewBox="0 0 100 100" xmlns="http://www.w3.org/2000/svg">
 <g>
  <path d="m0.84766 4.9492c-1.1328-1.1328-1.1289-2.9609 0.003906-4.0938 1.1289-1.1328 2.9609-1.1328 4.0938 0l47.102 47.102c1.1289 1.1328 1.125 2.9609-0.003906 4.0938-1.1328 1.1289-2.9609 1.1289-4.0938 0.003907z"/>
  <path d="m4.9531 99.148c-1.1328 1.1328-2.9648 1.125-4.0977-0.003907-1.1289-1.1328-1.1328-2.9609 0-4.0938l47.102-47.105c1.1289-1.125 2.9609-1.125 4.0938 0.003907 1.1328 1.1328 1.1367 2.9609 0.003907 4.0938z"/>
  <path d="m99.152 95.051c1.1328 1.1328 1.1328 2.9609 0 4.0938-1.1328 1.1328-2.9609 1.1328-4.0938 0l-47.109-47.094c-1.1289-1.1328-1.125-2.9609 0.003906-4.0938 1.1328-1.1328 2.9609-1.1328 4.0938-0.003906z"/>
  <path d="m95.047 0.85156c1.1328-1.1328 2.9648-1.125 4.0977 0.003907 1.1289 1.1328 1.1328 2.9609 0 4.0938l-47.102 47.105c-1.1289 1.125-2.9609 1.125-4.0938-0.003907-1.1328-1.1328-1.1367-2.9609-0.003907-4.0938z"/>
 </g>
</svg>
