<svg width="574" height="338" viewBox="0 0 574 338" fill="none" xmlns="http://www.w3.org/2000/svg">
<circle cx="264" cy="175" r="112" fill="white"/>
<path d="M184 164V148H187.912V160.5H198.245V164H184Z" fill="black"/>
<path d="M217.305 160.2C217.305 162.4 215.7 164 213.493 164H204.064C201.857 164 200.251 162.5 200.251 160.2V151.8C200.251 149.5 201.756 148 204.064 148H213.594C215.801 148 217.406 149.5 217.406 151.8V160.2H217.305ZM204.866 151.5C204.364 151.5 204.264 151.6 204.264 152.1V160C204.264 160.4 204.364 160.6 204.866 160.6H212.992C213.493 160.6 213.594 160.5 213.594 160V152.1C213.594 151.6 213.493 151.5 212.992 151.5H204.866V151.5Z" fill="black"/>
<path d="M238.472 160.2C238.472 162.4 236.867 164 234.66 164H225.13C222.923 164 221.318 162.5 221.318 160.2V151.8C221.318 149.5 222.823 148 225.13 148H234.66C236.867 148 238.472 149.5 238.472 151.8V160.2ZM225.933 151.5C225.431 151.5 225.331 151.6 225.331 152.1V160C225.331 160.4 225.431 160.6 225.933 160.6H234.058C234.56 160.6 234.66 160.5 234.66 160V152.1C234.66 151.6 234.56 151.5 234.058 151.5H225.933V151.5Z" fill="black"/>
<path d="M254.824 164L246.598 156.6V164H242.686V148H246.598V154.8L254.122 148H259.138L250.912 155.4L260.542 164H254.824Z" fill="black"/>
<path d="M269.671 164V148H273.584V160.5H283.916V164H269.671Z" fill="black"/>
<path d="M300.368 164L298.964 161.2H290.236L288.832 164H284.618L292.945 148H296.456L304.682 164H300.368ZM294.65 152L291.741 157.9H297.559L294.65 152Z" fill="black"/>
<path d="M322.538 160.4C322.538 162.5 321.636 164 318.927 164H306.588V148H318.425C321.234 148 322.338 149.6 322.338 151.5V153.2C322.338 154.4 321.836 154.9 321.335 155.3C321.034 155.5 320.733 155.6 320.432 155.7C320.833 155.8 321.134 155.9 321.535 156.1C322.137 156.5 322.639 157.1 322.639 158.3V160.4H322.538ZM318.425 152.4C318.425 151.7 318.225 151.4 317.523 151.4H310.601V154.3H317.523C318.225 154.3 318.425 154 318.425 153.4V152.4ZM318.626 158.3C318.626 157.6 318.425 157.3 317.723 157.3H310.601V160.6H317.723C318.425 160.6 318.626 160.3 318.626 159.7V158.3Z" fill="black"/>
<path d="M342 160.2C342 162.5 341.097 164 338.188 164H329.46C326.852 164 325.749 162.6 325.749 160.4V159.7L329.661 159.1V160.6H337.486C337.987 160.6 337.987 160.4 337.987 160V158.3C337.987 157.9 337.887 157.7 337.385 157.7H329.761C327.053 157.7 326.049 156.2 326.049 154.2V151.8C326.049 148.9 327.354 148 329.862 148H338.088C341.097 148 342 149.4 342 151.6V152.2L338.088 152.8V151.5H330.664C330.263 151.5 330.062 151.6 330.062 152.1V153.8C330.062 154.2 330.162 154.3 330.664 154.3H338.288C340.997 154.3 342 155.8 342 157.9V160.2V160.2Z" fill="black"/>
<path d="M243.166 180.248H248.374C250.55 180.248 252.166 180.968 253.222 182.408C254.294 183.848 254.83 185.92 254.83 188.624C254.83 191.344 254.294 193.424 253.222 194.864C252.166 196.288 250.55 197 248.374 197H243.166V180.248ZM248.158 194.48C249.31 194.48 250.158 194.104 250.702 193.352C251.262 192.6 251.542 191.504 251.542 190.064V187.16C251.542 185.736 251.262 184.648 250.702 183.896C250.158 183.144 249.31 182.768 248.158 182.768H246.262V194.48H248.158ZM266.581 197L265.405 192.752H260.437L259.285 197H256.117L260.821 180.248H265.189L269.917 197H266.581ZM263.029 183.344H262.837L260.989 190.184H264.877L263.029 183.344ZM277.395 197.288C276.307 197.288 275.363 197.096 274.563 196.712C273.763 196.312 273.099 195.744 272.571 195.008C272.059 194.272 271.675 193.368 271.419 192.296C271.179 191.224 271.059 190 271.059 188.624C271.059 187.264 271.179 186.048 271.419 184.976C271.675 183.888 272.059 182.976 272.571 182.24C273.099 181.504 273.763 180.944 274.563 180.56C275.363 180.16 276.307 179.96 277.395 179.96C279.571 179.96 281.171 180.72 282.195 182.24C283.219 183.76 283.731 185.888 283.731 188.624C283.731 191.36 283.219 193.488 282.195 195.008C281.171 196.528 279.571 197.288 277.395 197.288ZM277.395 194.72C277.955 194.72 278.427 194.616 278.811 194.408C279.195 194.184 279.499 193.872 279.723 193.472C279.963 193.072 280.131 192.584 280.227 192.008C280.339 191.416 280.395 190.76 280.395 190.04V187.184C280.395 185.744 280.171 184.608 279.723 183.776C279.291 182.944 278.515 182.528 277.395 182.528C276.275 182.528 275.491 182.944 275.043 183.776C274.611 184.608 274.395 185.744 274.395 187.184V190.064C274.395 191.504 274.611 192.64 275.043 193.472C275.491 194.304 276.275 194.72 277.395 194.72Z" fill="black"/>
<path opacity="0.5" d="M435.373 56V54.432H437.885V46.4H435.373V44.832H442.477V46.4H439.965V54.432H442.477V56H435.373ZM444.999 56V44.832H449.239C450.327 44.832 451.159 45.1413 451.735 45.76C452.311 46.3787 452.599 47.2213 452.599 48.288C452.599 49.3547 452.311 50.1973 451.735 50.816C451.159 51.4347 450.327 51.744 449.239 51.744H447.095V56H444.999ZM447.095 50.032H448.807C449.372 50.032 449.777 49.92 450.023 49.696C450.268 49.4613 450.391 49.0933 450.391 48.592V47.984C450.391 47.4827 450.268 47.12 450.023 46.896C449.777 46.6613 449.372 46.544 448.807 46.544H447.095V50.032ZM467.578 56.192C466.618 56.192 465.797 56.0267 465.114 55.696C464.442 55.3653 463.893 54.928 463.466 54.384L464.73 53.072C465.146 53.552 465.594 53.9093 466.074 54.144C466.565 54.368 467.088 54.48 467.642 54.48C468.282 54.48 468.773 54.336 469.114 54.048C469.456 53.76 469.626 53.344 469.626 52.8C469.626 52.352 469.498 52.016 469.242 51.792C468.986 51.5573 468.554 51.392 467.946 51.296L466.762 51.104C465.728 50.9227 464.992 50.5493 464.554 49.984C464.117 49.408 463.898 48.7307 463.898 47.952C463.898 46.8853 464.245 46.0693 464.938 45.504C465.632 44.928 466.592 44.64 467.818 44.64C468.693 44.64 469.445 44.7787 470.074 45.056C470.714 45.3333 471.226 45.712 471.61 46.192L470.378 47.504C470.08 47.152 469.722 46.8747 469.306 46.672C468.89 46.4587 468.4 46.352 467.834 46.352C466.618 46.352 466.01 46.8533 466.01 47.856C466.01 48.2827 466.138 48.608 466.394 48.832C466.65 49.056 467.088 49.2213 467.706 49.328L468.874 49.536C469.845 49.7173 470.565 50.0747 471.034 50.608C471.504 51.1413 471.738 51.824 471.738 52.656C471.738 53.1787 471.648 53.6587 471.466 54.096C471.285 54.5227 471.018 54.896 470.666 55.216C470.314 55.5253 469.877 55.7653 469.354 55.936C468.842 56.1067 468.25 56.192 467.578 56.192ZM478.932 51.2H475.668V56H473.572V44.832H475.668V49.472H478.932V44.832H481.028V56H478.932V51.2ZM489.278 56L488.494 53.168H485.182L484.414 56H482.302L485.438 44.832H488.35L491.502 56H489.278ZM486.91 46.896H486.782L485.55 51.456H488.142L486.91 46.896ZM495.064 56H492.968V44.832H497.208C498.296 44.832 499.128 45.1413 499.704 45.76C500.28 46.3787 500.568 47.2213 500.568 48.288C500.568 49.1093 500.376 49.8027 499.992 50.368C499.618 50.9227 499.08 51.2747 498.376 51.424L500.76 56H498.456L496.328 51.664H495.064V56ZM496.776 50.032C497.341 50.032 497.746 49.92 497.992 49.696C498.237 49.4613 498.36 49.0933 498.36 48.592V47.984C498.36 47.4827 498.237 47.12 497.992 46.896C497.746 46.6613 497.341 46.544 496.776 46.544H495.064V50.032H496.776ZM502.609 56V44.832H509.665V46.56H504.705V49.472H509.489V51.2H504.705V54.272H509.665V56H502.609ZM447.095 77H444.999V65.832H449.239C450.327 65.832 451.159 66.1413 451.735 66.76C452.311 67.3787 452.599 68.2213 452.599 69.288C452.599 70.1093 452.407 70.8027 452.023 71.368C451.649 71.9227 451.111 72.2747 450.407 72.424L452.791 77H450.487L448.359 72.664H447.095V77ZM448.807 71.032C449.372 71.032 449.777 70.92 450.023 70.696C450.268 70.4613 450.391 70.0933 450.391 69.592V68.984C450.391 68.4827 450.268 68.12 450.023 67.896C449.777 67.6613 449.372 67.544 448.807 67.544H447.095V71.032H448.807ZM454.561 77V75.432H457.073V67.4H454.561V65.832H461.665V67.4H459.153V75.432H461.665V77H454.561ZM469.642 75.448H469.514C469.418 75.672 469.301 75.8907 469.162 76.104C469.024 76.3173 468.853 76.504 468.65 76.664C468.448 76.824 468.208 76.952 467.93 77.048C467.664 77.144 467.354 77.192 467.002 77.192C465.872 77.192 465.013 76.696 464.426 75.704C463.85 74.7013 463.562 73.2987 463.562 71.496C463.562 69.5973 463.904 68.1467 464.586 67.144C465.269 66.1413 466.32 65.64 467.738 65.64C468.293 65.64 468.778 65.7147 469.194 65.864C469.621 66.0133 469.984 66.2213 470.282 66.488C470.592 66.7547 470.842 67.0747 471.034 67.448C471.237 67.8107 471.397 68.2053 471.514 68.632L469.594 69.176C469.52 68.9413 469.434 68.712 469.338 68.488C469.253 68.264 469.136 68.072 468.986 67.912C468.848 67.7413 468.677 67.608 468.474 67.512C468.272 67.4053 468.021 67.352 467.722 67.352C467.029 67.352 466.533 67.6293 466.234 68.184C465.936 68.7387 465.786 69.496 465.786 70.456V72.248C465.786 72.728 465.818 73.1707 465.882 73.576C465.957 73.9707 466.074 74.312 466.234 74.6C466.394 74.888 466.602 75.112 466.858 75.272C467.114 75.4213 467.434 75.496 467.818 75.496C468.416 75.496 468.869 75.32 469.178 74.968C469.488 74.6053 469.642 74.1467 469.642 73.592V72.68H467.61V71.16H471.514V77H469.642V75.448ZM478.932 72.2H475.668V77H473.572V65.832H475.668V70.472H478.932V65.832H481.028V77H478.932V72.2ZM487.934 67.56V77H485.854V67.56H482.494V65.832H491.294V67.56H487.934ZM496.36 77.192C495.4 77.192 494.578 77.0267 493.896 76.696C493.224 76.3653 492.674 75.928 492.248 75.384L493.512 74.072C493.928 74.552 494.376 74.9093 494.856 75.144C495.346 75.368 495.869 75.48 496.424 75.48C497.064 75.48 497.554 75.336 497.896 75.048C498.237 74.76 498.408 74.344 498.408 73.8C498.408 73.352 498.28 73.016 498.024 72.792C497.768 72.5573 497.336 72.392 496.728 72.296L495.544 72.104C494.509 71.9227 493.773 71.5493 493.336 70.984C492.898 70.408 492.68 69.7307 492.68 68.952C492.68 67.8853 493.026 67.0693 493.72 66.504C494.413 65.928 495.373 65.64 496.6 65.64C497.474 65.64 498.226 65.7787 498.856 66.056C499.496 66.3333 500.008 66.712 500.392 67.192L499.16 68.504C498.861 68.152 498.504 67.8747 498.088 67.672C497.672 67.4587 497.181 67.352 496.616 67.352C495.4 67.352 494.792 67.8533 494.792 68.856C494.792 69.2827 494.92 69.608 495.176 69.832C495.432 70.056 495.869 70.2213 496.488 70.328L497.656 70.536C498.626 70.7173 499.346 71.0747 499.816 71.608C500.285 72.1413 500.52 72.824 500.52 73.656C500.52 74.1787 500.429 74.6587 500.248 75.096C500.066 75.5227 499.8 75.896 499.448 76.216C499.096 76.5253 498.658 76.7653 498.136 76.936C497.624 77.1067 497.032 77.192 496.36 77.192Z" fill="white"/>
<path opacity="0.5" d="M26.7019 237V225.832H30.9419C32.0299 225.832 32.8619 226.141 33.4379 226.76C34.0139 227.379 34.3019 228.221 34.3019 229.288C34.3019 230.355 34.0139 231.197 33.4379 231.816C32.8619 232.435 32.0299 232.744 30.9419 232.744H28.7979V237H26.7019ZM28.7979 231.032H30.5099C31.0752 231.032 31.4805 230.92 31.7259 230.696C31.9712 230.461 32.0939 230.093 32.0939 229.592V228.984C32.0939 228.483 31.9712 228.12 31.7259 227.896C31.4805 227.661 31.0752 227.544 30.5099 227.544H28.7979V231.032ZM42.1996 237L41.4156 234.168H38.1036L37.3356 237H35.2236L38.3596 225.832H41.2716L44.4236 237H42.1996ZM39.8316 227.896H39.7036L38.4716 232.456H41.0636L39.8316 227.896ZM49.2814 237.192C48.3214 237.192 47.5 237.027 46.8174 236.696C46.1454 236.365 45.596 235.928 45.1694 235.384L46.4334 234.072C46.8494 234.552 47.2974 234.909 47.7774 235.144C48.268 235.368 48.7907 235.48 49.3454 235.48C49.9854 235.48 50.476 235.336 50.8174 235.048C51.1587 234.76 51.3294 234.344 51.3294 233.8C51.3294 233.352 51.2014 233.016 50.9454 232.792C50.6894 232.557 50.2574 232.392 49.6494 232.296L48.4654 232.104C47.4307 231.923 46.6947 231.549 46.2574 230.984C45.82 230.408 45.6014 229.731 45.6014 228.952C45.6014 227.885 45.948 227.069 46.6414 226.504C47.3347 225.928 48.2947 225.64 49.5214 225.64C50.396 225.64 51.148 225.779 51.7774 226.056C52.4174 226.333 52.9294 226.712 53.3134 227.192L52.0814 228.504C51.7827 228.152 51.4254 227.875 51.0094 227.672C50.5934 227.459 50.1027 227.352 49.5374 227.352C48.3214 227.352 47.7134 227.853 47.7134 228.856C47.7134 229.283 47.8414 229.608 48.0974 229.832C48.3534 230.056 48.7907 230.221 49.4094 230.328L50.5774 230.536C51.548 230.717 52.268 231.075 52.7374 231.608C53.2067 232.141 53.4414 232.824 53.4414 233.656C53.4414 234.179 53.3507 234.659 53.1694 235.096C52.988 235.523 52.7214 235.896 52.3694 236.216C52.0174 236.525 51.58 236.765 51.0574 236.936C50.5454 237.107 49.9534 237.192 49.2814 237.192ZM58.8751 237.192C57.9151 237.192 57.0938 237.027 56.4111 236.696C55.7391 236.365 55.1898 235.928 54.7631 235.384L56.0271 234.072C56.4431 234.552 56.8911 234.909 57.3711 235.144C57.8618 235.368 58.3845 235.48 58.9391 235.48C59.5791 235.48 60.0698 235.336 60.4111 235.048C60.7525 234.76 60.9231 234.344 60.9231 233.8C60.9231 233.352 60.7951 233.016 60.5391 232.792C60.2831 232.557 59.8511 232.392 59.2431 232.296L58.0591 232.104C57.0245 231.923 56.2885 231.549 55.8511 230.984C55.4138 230.408 55.1951 229.731 55.1951 228.952C55.1951 227.885 55.5418 227.069 56.2351 226.504C56.9285 225.928 57.8885 225.64 59.1151 225.64C59.9898 225.64 60.7418 225.779 61.3711 226.056C62.0111 226.333 62.5231 226.712 62.9071 227.192L61.6751 228.504C61.3765 228.152 61.0191 227.875 60.6031 227.672C60.1871 227.459 59.6965 227.352 59.1311 227.352C57.9151 227.352 57.3071 227.853 57.3071 228.856C57.3071 229.283 57.4351 229.608 57.6911 229.832C57.9471 230.056 58.3845 230.221 59.0031 230.328L60.1711 230.536C61.1418 230.717 61.8618 231.075 62.3311 231.608C62.8005 232.141 63.0351 232.824 63.0351 233.656C63.0351 234.179 62.9445 234.659 62.7631 235.096C62.5818 235.523 62.3151 235.896 61.9631 236.216C61.6111 236.525 61.1738 236.765 60.6511 236.936C60.1391 237.107 59.5471 237.192 58.8751 237.192ZM65.0449 237V235.432H67.5569V227.4H65.0449V225.832H72.1489V227.4H69.6369V235.432H72.1489V237H65.0449ZM76.7186 237L73.6626 225.832H75.9666L77.3586 231.48L78.1746 235H78.2866L79.1186 231.48L80.5266 225.832H82.7186L79.6626 237H76.7186ZM84.3124 237V225.832H91.3684V227.56H86.4084V230.472H91.1924V232.2H86.4084V235.272H91.3684V237H84.3124ZM31.4668 258V256.432H33.9788V248.4H31.4668V246.832H38.5708V248.4H36.0588V256.432H38.5708V258H31.4668ZM42.8365 249.984H42.6765V258H40.8845V246.832H43.4605L46.3885 254.848H46.5485V246.832H48.3405V258H45.7645L42.8365 249.984ZM54.4943 258.192C53.0329 258.192 51.9503 257.691 51.2463 256.688C50.5529 255.685 50.2063 254.261 50.2063 252.416C50.2063 250.581 50.5529 249.163 51.2463 248.16C51.9503 247.147 53.0329 246.64 54.4943 246.64C55.0489 246.64 55.5343 246.715 55.9503 246.864C56.3769 247.013 56.7449 247.221 57.0543 247.488C57.3636 247.744 57.6196 248.059 57.8223 248.432C58.0249 248.795 58.1849 249.195 58.3023 249.632L56.3823 250.176C56.3076 249.92 56.2223 249.68 56.1263 249.456C56.0303 249.232 55.9076 249.04 55.7583 248.88C55.6196 248.709 55.4436 248.581 55.2303 248.496C55.0169 248.4 54.7609 248.352 54.4623 248.352C53.7369 248.352 53.2143 248.629 52.8943 249.184C52.5849 249.739 52.4303 250.496 52.4303 251.456V253.376C52.4303 254.336 52.5849 255.093 52.8943 255.648C53.2143 256.203 53.7369 256.48 54.4623 256.48C54.7609 256.48 55.0169 256.437 55.2303 256.352C55.4436 256.256 55.6196 256.128 55.7583 255.968C55.9076 255.797 56.0303 255.6 56.1263 255.376C56.2223 255.152 56.3076 254.912 56.3823 254.656L58.3023 255.2C58.1849 255.637 58.0249 256.043 57.8223 256.416C57.6196 256.779 57.3636 257.093 57.0543 257.36C56.7449 257.616 56.3769 257.819 55.9503 257.968C55.5343 258.117 55.0489 258.192 54.4943 258.192ZM63.8 258.192C63.0747 258.192 62.4453 258.064 61.912 257.808C61.3787 257.541 60.936 257.163 60.584 256.672C60.2427 256.181 59.9867 255.579 59.816 254.864C59.656 254.149 59.576 253.333 59.576 252.416C59.576 251.509 59.656 250.699 59.816 249.984C59.9867 249.259 60.2427 248.651 60.584 248.16C60.936 247.669 61.3787 247.296 61.912 247.04C62.4453 246.773 63.0747 246.64 63.8 246.64C65.2507 246.64 66.3173 247.147 67 248.16C67.6827 249.173 68.024 250.592 68.024 252.416C68.024 254.24 67.6827 255.659 67 256.672C66.3173 257.685 65.2507 258.192 63.8 258.192ZM63.8 256.48C64.1733 256.48 64.488 256.411 64.744 256.272C65 256.123 65.2027 255.915 65.352 255.648C65.512 255.381 65.624 255.056 65.688 254.672C65.7627 254.277 65.8 253.84 65.8 253.36V251.456C65.8 250.496 65.6507 249.739 65.352 249.184C65.064 248.629 64.5467 248.352 63.8 248.352C63.0533 248.352 62.5307 248.629 62.232 249.184C61.944 249.739 61.8 250.496 61.8 251.456V253.376C61.8 254.336 61.944 255.093 62.232 255.648C62.5307 256.203 63.0533 256.48 63.8 256.48ZM75.6018 252.832L75.6978 249.6H75.5538L73.3938 255.344L71.2338 249.6H71.0898L71.1858 252.832V258H69.3618V246.832H71.8578L73.4098 250.944H73.5218L75.0898 246.832H77.4258V258H75.6018V252.832ZM79.5155 258V246.832H86.5715V248.56H81.6115V251.472H86.3955V253.2H81.6115V256.272H86.5715V258H79.5155Z" fill="white"/>
<circle cx="472" cy="60" r="59.5" stroke="white"/>
<path opacity="0.5" d="M405.338 233.192C403.877 233.192 402.794 232.691 402.09 231.688C401.397 230.685 401.05 229.261 401.05 227.416C401.05 225.581 401.397 224.163 402.09 223.16C402.794 222.147 403.877 221.64 405.338 221.64C405.893 221.64 406.378 221.715 406.794 221.864C407.221 222.013 407.589 222.221 407.898 222.488C408.207 222.744 408.463 223.059 408.666 223.432C408.869 223.795 409.029 224.195 409.146 224.632L407.226 225.176C407.151 224.92 407.066 224.68 406.97 224.456C406.874 224.232 406.751 224.04 406.602 223.88C406.463 223.709 406.287 223.581 406.074 223.496C405.861 223.4 405.605 223.352 405.306 223.352C404.581 223.352 404.058 223.629 403.738 224.184C403.429 224.739 403.274 225.496 403.274 226.456V228.376C403.274 229.336 403.429 230.093 403.738 230.648C404.058 231.203 404.581 231.48 405.306 231.48C405.605 231.48 405.861 231.437 406.074 231.352C406.287 231.256 406.463 231.128 406.602 230.968C406.751 230.797 406.874 230.6 406.97 230.376C407.066 230.152 407.151 229.912 407.226 229.656L409.146 230.2C409.029 230.637 408.869 231.043 408.666 231.416C408.463 231.779 408.207 232.093 407.898 232.36C407.589 232.616 407.221 232.819 406.794 232.968C406.378 233.117 405.893 233.192 405.338 233.192ZM413.22 233H411.124V221.832H415.364C416.452 221.832 417.284 222.141 417.86 222.76C418.436 223.379 418.724 224.221 418.724 225.288C418.724 226.109 418.532 226.803 418.148 227.368C417.774 227.923 417.236 228.275 416.532 228.424L418.916 233H416.612L414.484 228.664H413.22V233ZM414.932 227.032C415.497 227.032 415.902 226.92 416.148 226.696C416.393 226.461 416.516 226.093 416.516 225.592V224.984C416.516 224.483 416.393 224.12 416.148 223.896C415.902 223.661 415.497 223.544 414.932 223.544H413.22V227.032H414.932ZM423.198 233V228.92L419.566 221.832H421.902L423.198 224.52L424.206 226.808H424.318L425.342 224.52L426.654 221.832H428.91L425.278 228.92V233H423.198ZM430.311 233V221.832H434.551C435.639 221.832 436.471 222.141 437.047 222.76C437.623 223.379 437.911 224.221 437.911 225.288C437.911 226.355 437.623 227.197 437.047 227.816C436.471 228.435 435.639 228.744 434.551 228.744H432.407V233H430.311ZM432.407 227.032H434.119C434.685 227.032 435.09 226.92 435.335 226.696C435.581 226.461 435.703 226.093 435.703 225.592V224.984C435.703 224.483 435.581 224.12 435.335 223.896C435.09 223.661 434.685 223.544 434.119 223.544H432.407V227.032ZM444.465 223.56V233H442.385V223.56H439.025V221.832H447.825V223.56H444.465ZM453.019 233.192C452.293 233.192 451.664 233.064 451.131 232.808C450.597 232.541 450.155 232.163 449.803 231.672C449.461 231.181 449.205 230.579 449.035 229.864C448.875 229.149 448.795 228.333 448.795 227.416C448.795 226.509 448.875 225.699 449.035 224.984C449.205 224.259 449.461 223.651 449.803 223.16C450.155 222.669 450.597 222.296 451.131 222.04C451.664 221.773 452.293 221.64 453.019 221.64C454.469 221.64 455.536 222.147 456.219 223.16C456.901 224.173 457.243 225.592 457.243 227.416C457.243 229.24 456.901 230.659 456.219 231.672C455.536 232.685 454.469 233.192 453.019 233.192ZM453.019 231.48C453.392 231.48 453.707 231.411 453.963 231.272C454.219 231.123 454.421 230.915 454.571 230.648C454.731 230.381 454.843 230.056 454.907 229.672C454.981 229.277 455.019 228.84 455.019 228.36V226.456C455.019 225.496 454.869 224.739 454.571 224.184C454.283 223.629 453.765 223.352 453.019 223.352C452.272 223.352 451.749 223.629 451.451 224.184C451.163 224.739 451.019 225.496 451.019 226.456V228.376C451.019 229.336 451.163 230.093 451.451 230.648C451.749 231.203 452.272 231.48 453.019 231.48ZM459.093 233V221.832H463.333C464.421 221.832 465.253 222.141 465.829 222.76C466.405 223.379 466.693 224.221 466.693 225.288C466.693 226.355 466.405 227.197 465.829 227.816C465.253 228.435 464.421 228.744 463.333 228.744H461.189V233H459.093ZM461.189 227.032H462.901C463.466 227.032 463.871 226.92 464.117 226.696C464.362 226.461 464.485 226.093 464.485 225.592V224.984C464.485 224.483 464.362 224.12 464.117 223.896C463.871 223.661 463.466 223.544 462.901 223.544H461.189V227.032ZM470.494 221.832V228.792C470.494 229.208 470.505 229.581 470.526 229.912C470.558 230.243 470.628 230.525 470.734 230.76C470.852 230.984 471.022 231.16 471.246 231.288C471.481 231.416 471.801 231.48 472.206 231.48C472.612 231.48 472.926 231.416 473.15 231.288C473.385 231.16 473.556 230.984 473.662 230.76C473.78 230.525 473.849 230.243 473.87 229.912C473.902 229.581 473.918 229.208 473.918 228.792V221.832H476.014V228.472C476.014 229.261 475.966 229.949 475.87 230.536C475.774 231.123 475.588 231.613 475.31 232.008C475.033 232.403 474.644 232.701 474.142 232.904C473.652 233.096 473.006 233.192 472.206 233.192C471.406 233.192 470.756 233.096 470.254 232.904C469.764 232.701 469.38 232.403 469.102 232.008C468.825 231.613 468.638 231.123 468.542 230.536C468.446 229.949 468.398 229.261 468.398 228.472V221.832H470.494ZM480.024 224.984H479.864V233H478.072V221.832H480.648L483.576 229.848H483.736V221.832H485.528V233H482.952L480.024 224.984ZM491.026 228.104L489.858 229.64V233H487.762V221.832H489.858V226.856H489.954L491.25 225L493.602 221.832H495.97L492.466 226.536L496.13 233H493.762L491.026 228.104ZM507.797 229.784H505.957V228.248H508.085L508.357 226.584H506.565V225.048H508.645L509.205 221.832H510.869L508.901 233H507.237L507.797 229.784ZM512.261 221.832H513.925L513.365 225.048H515.205V226.584H513.077L512.805 228.248H514.597V229.784H512.517L511.957 233H510.293L512.261 221.832ZM523.663 223.656H518.543L518.271 227.4H518.399C518.527 227.165 518.666 226.952 518.815 226.76C518.964 226.557 519.135 226.387 519.327 226.248C519.53 226.109 519.754 226.003 519.999 225.928C520.255 225.853 520.548 225.816 520.879 225.816C521.348 225.816 521.791 225.896 522.207 226.056C522.623 226.216 522.986 226.445 523.295 226.744C523.604 227.043 523.844 227.411 524.015 227.848C524.196 228.285 524.287 228.781 524.287 229.336C524.287 229.891 524.191 230.403 523.999 230.872C523.818 231.341 523.546 231.752 523.183 232.104C522.831 232.445 522.394 232.712 521.871 232.904C521.359 233.096 520.767 233.192 520.095 233.192C519.572 233.192 519.103 233.133 518.687 233.016C518.282 232.909 517.924 232.76 517.615 232.568C517.306 232.376 517.034 232.157 516.799 231.912C516.564 231.656 516.362 231.395 516.191 231.128L517.711 229.928C517.839 230.141 517.978 230.344 518.127 230.536C518.287 230.717 518.463 230.877 518.655 231.016C518.847 231.155 519.06 231.267 519.295 231.352C519.54 231.427 519.818 231.464 520.127 231.464C520.767 231.464 521.252 231.293 521.583 230.952C521.924 230.6 522.095 230.12 522.095 229.512V229.384C522.095 228.797 521.924 228.339 521.583 228.008C521.242 227.677 520.762 227.512 520.143 227.512C519.674 227.512 519.29 227.603 518.991 227.784C518.703 227.955 518.468 228.141 518.287 228.344L516.575 228.104L516.991 221.832H523.663V223.656ZM530.585 233V230.84H525.417V229.048L529.977 221.832H532.585V229.208H534.089V230.84H532.585V233H530.585ZM527.129 229.208H530.585V223.88H530.457L527.129 229.208ZM539.363 233.192C538.637 233.192 538.008 233.064 537.475 232.808C536.941 232.541 536.499 232.163 536.147 231.672C535.805 231.181 535.549 230.579 535.379 229.864C535.219 229.149 535.139 228.333 535.139 227.416C535.139 226.509 535.219 225.699 535.379 224.984C535.549 224.259 535.805 223.651 536.147 223.16C536.499 222.669 536.941 222.296 537.475 222.04C538.008 221.773 538.637 221.64 539.363 221.64C540.813 221.64 541.88 222.147 542.562 223.16C543.245 224.173 543.587 225.592 543.587 227.416C543.587 229.24 543.245 230.659 542.562 231.672C541.88 232.685 540.813 233.192 539.363 233.192ZM539.363 231.512C540.131 231.512 540.669 231.24 540.979 230.696C541.299 230.141 541.459 229.379 541.459 228.408V226.424C541.459 225.453 541.299 224.696 540.979 224.152C540.669 223.597 540.131 223.32 539.363 223.32C538.595 223.32 538.051 223.597 537.731 224.152C537.421 224.696 537.267 225.453 537.267 226.424V228.408C537.267 229.379 537.421 230.141 537.731 230.696C538.051 231.24 538.595 231.512 539.363 231.512ZM539.363 228.36C538.989 228.36 538.728 228.285 538.579 228.136C538.44 227.987 538.371 227.805 538.371 227.592V227.24C538.371 227.027 538.44 226.845 538.579 226.696C538.728 226.547 538.989 226.472 539.363 226.472C539.736 226.472 539.992 226.547 540.131 226.696C540.28 226.845 540.355 227.027 540.355 227.24V227.592C540.355 227.805 540.28 227.987 540.131 228.136C539.992 228.285 539.736 228.36 539.363 228.36ZM552.956 233H545.084V231.048L548.668 227.992C549.266 227.48 549.708 227.016 549.996 226.6C550.284 226.173 550.428 225.72 550.428 225.24V225.08C550.428 224.547 550.279 224.141 549.98 223.864C549.682 223.587 549.266 223.448 548.732 223.448C548.146 223.448 547.698 223.608 547.388 223.928C547.079 224.248 546.855 224.643 546.716 225.112L544.892 224.424C545.01 224.061 545.175 223.715 545.388 223.384C545.612 223.043 545.884 222.744 546.204 222.488C546.535 222.232 546.924 222.029 547.372 221.88C547.82 221.72 548.332 221.64 548.908 221.64C549.506 221.64 550.034 221.725 550.492 221.896C550.962 222.056 551.356 222.285 551.676 222.584C551.996 222.872 552.236 223.219 552.396 223.624C552.567 224.029 552.652 224.472 552.652 224.952C552.652 225.411 552.578 225.832 552.428 226.216C552.29 226.6 552.092 226.968 551.836 227.32C551.58 227.661 551.276 227.992 550.924 228.312C550.583 228.632 550.21 228.952 549.804 229.272L547.372 231.24H552.956V233ZM411.172 254V242.832H418.468V244.56H413.268V247.472H417.956V249.2H413.268V254H411.172ZM422.814 254H420.718V242.832H424.958C426.046 242.832 426.878 243.141 427.454 243.76C428.03 244.379 428.318 245.221 428.318 246.288C428.318 247.109 428.126 247.803 427.742 248.368C427.368 248.923 426.83 249.275 426.126 249.424L428.51 254H426.206L424.078 249.664H422.814V254ZM424.526 248.032C425.091 248.032 425.496 247.92 425.742 247.696C425.987 247.461 426.11 247.093 426.11 246.592V245.984C426.11 245.483 425.987 245.12 425.742 244.896C425.496 244.661 425.091 244.544 424.526 244.544H422.814V248.032H424.526ZM436.215 254L435.431 251.168H432.119L431.351 254H429.239L432.375 242.832H435.287L438.439 254H436.215ZM433.847 244.896H433.719L432.487 249.456H435.079L433.847 244.896ZM443.713 254.192C442.252 254.192 441.169 253.691 440.465 252.688C439.772 251.685 439.425 250.261 439.425 248.416C439.425 246.581 439.772 245.163 440.465 244.16C441.169 243.147 442.252 242.64 443.713 242.64C444.268 242.64 444.753 242.715 445.169 242.864C445.596 243.013 445.964 243.221 446.273 243.488C446.582 243.744 446.838 244.059 447.041 244.432C447.244 244.795 447.404 245.195 447.521 245.632L445.601 246.176C445.526 245.92 445.441 245.68 445.345 245.456C445.249 245.232 445.126 245.04 444.977 244.88C444.838 244.709 444.662 244.581 444.449 244.496C444.236 244.4 443.98 244.352 443.681 244.352C442.956 244.352 442.433 244.629 442.113 245.184C441.804 245.739 441.649 246.496 441.649 247.456V249.376C441.649 250.336 441.804 251.093 442.113 251.648C442.433 252.203 442.956 252.48 443.681 252.48C443.98 252.48 444.236 252.437 444.449 252.352C444.662 252.256 444.838 252.128 444.977 251.968C445.126 251.797 445.249 251.6 445.345 251.376C445.441 251.152 445.526 250.912 445.601 250.656L447.521 251.2C447.404 251.637 447.244 252.043 447.041 252.416C446.838 252.779 446.582 253.093 446.273 253.36C445.964 253.616 445.596 253.819 445.169 253.968C444.753 254.117 444.268 254.192 443.713 254.192ZM454.059 244.56V254H451.979V244.56H448.619V242.832H457.419V244.56H454.059ZM459.061 254V252.432H461.573V244.4H459.061V242.832H466.165V244.4H463.653V252.432H466.165V254H459.061ZM472.206 254.192C471.481 254.192 470.852 254.064 470.318 253.808C469.785 253.541 469.342 253.163 468.99 252.672C468.649 252.181 468.393 251.579 468.222 250.864C468.062 250.149 467.982 249.333 467.982 248.416C467.982 247.509 468.062 246.699 468.222 245.984C468.393 245.259 468.649 244.651 468.99 244.16C469.342 243.669 469.785 243.296 470.318 243.04C470.852 242.773 471.481 242.64 472.206 242.64C473.657 242.64 474.724 243.147 475.406 244.16C476.089 245.173 476.43 246.592 476.43 248.416C476.43 250.24 476.089 251.659 475.406 252.672C474.724 253.685 473.657 254.192 472.206 254.192ZM472.206 252.48C472.58 252.48 472.894 252.411 473.15 252.272C473.406 252.123 473.609 251.915 473.758 251.648C473.918 251.381 474.03 251.056 474.094 250.672C474.169 250.277 474.206 249.84 474.206 249.36V247.456C474.206 246.496 474.057 245.739 473.758 245.184C473.47 244.629 472.953 244.352 472.206 244.352C471.46 244.352 470.937 244.629 470.638 245.184C470.35 245.739 470.206 246.496 470.206 247.456V249.376C470.206 250.336 470.35 251.093 470.638 251.648C470.937 252.203 471.46 252.48 472.206 252.48ZM480.024 245.984H479.864V254H478.072V242.832H480.648L483.576 250.848H483.736V242.832H485.528V254H482.952L480.024 245.984ZM493.778 254L492.994 251.168H489.682L488.914 254H486.802L489.938 242.832H492.85L496.002 254H493.778ZM491.41 244.896H491.282L490.05 249.456H492.642L491.41 244.896ZM497.788 254V242.832H499.884V252.272H504.828V254H497.788ZM507.029 254V252.432H509.541V244.4H507.029V242.832H514.133V244.4H511.621V252.432H514.133V254H507.029ZM524.207 254H516.143V252.16L521.695 244.56H516.335V242.832H523.999V244.672L518.463 252.272H524.207V254ZM526.297 254V242.832H533.353V244.56H528.393V247.472H533.177V249.2H528.393V252.272H533.353V254H526.297ZM535.731 242.832H539.203C540.653 242.832 541.731 243.312 542.435 244.272C543.149 245.232 543.507 246.613 543.507 248.416C543.507 250.229 543.149 251.616 542.435 252.576C541.731 253.525 540.653 254 539.203 254H535.731V242.832ZM539.059 252.32C539.827 252.32 540.392 252.069 540.755 251.568C541.128 251.067 541.315 250.336 541.315 249.376V247.44C541.315 246.491 541.128 245.765 540.755 245.264C540.392 244.763 539.827 244.512 539.059 244.512H537.795V252.32H539.059Z" fill="white"/>
<circle cx="476.5" cy="240.5" r="97" stroke="white"/>
<circle cx="60" cy="241" r="59.5" stroke="white"/>
</svg>
