<?xml version="1.0" encoding="UTF-8"?>
<svg width="600px" height="322px" viewBox="0 0 600 322" version="1.1" xmlns="http://www.w3.org/2000/svg" xmlns:xlink="http://www.w3.org/1999/xlink">
    <title>dezeen</title>
    <g id="Page-1" stroke="none" stroke-width="1" fill="none" fill-rule="evenodd">
        <g id="dezeen" fill="#FFFFFF" fill-rule="nonzero">
            <path d="M87.7,60.7 C78.3,51.9 65.9,47.1 53,47.3 C21.7,47.3 0,76 0,111.1 C0,146.2 21.7,174.9 53,174.9 C70.6,174.9 80,168.9 87.2,160.2 L87.7,160.2 L87.7,172 L117.2,172 L117.2,0.6 L87.7,0.6 C87.7,0.6 87.7,60.7 87.7,60.7 Z M59.7,148 C37.6,148 31,128.7 30.8,111.2 C31,93.6 37.5,74.4 59.7,74.4 C81.9,74.4 88.3,93.7 88.6,111.2 C88.4,128.7 81.9,148 59.7,148 Z M222.2,130.6 C219.3,134.7 210.2,147.9 187,147.9 C170.1,148.2 156,134.9 155.4,118 L245.4,118 C245.4,74.4 227.6,47.2 186.9,47.2 C147.4,47.2 124.6,74.7 124.6,111 C124.6,147.3 147.5,174.8 187,174.8 C220.2,174.8 237.8,158.9 247,144.9 L222.2,130.6 Z M187.1,71.4 C206.8,71.4 214.8,89 214.8,95.5 L155.5,95.5 C159,81 172.2,70.9 187.1,71.4 Z M131.4,222.2 L189.2,222.2 L124.7,295.9 L124.7,318.5 L228,318.5 L228,293 L164.2,293 L228,219.3 L228,196.7 L131.4,196.7 L131.4,222.2 Z M294,294.4 C277.1,294.7 263.1,281.4 262.5,264.6 L352.5,264.6 C352.5,221 334.7,193.8 294,193.8 C254.5,193.8 231.6,221.3 231.6,257.6 C231.6,293.9 254.5,321.4 294,321.4 C327.2,321.4 344.8,305.5 354,291.5 L329.2,277 C326.2,281.2 317.1,294.4 294,294.4 Z M294,217.9 C313.7,217.9 321.7,235.5 321.7,242 L262.5,242 C265.9,227.5 279.1,217.4 294,217.9 Z M425,294.4 C408.1,294.7 394.1,281.4 393.5,264.6 L483.5,264.6 C483.5,221 465.7,193.8 425,193.8 C385.5,193.8 362.6,221.3 362.6,257.6 C362.6,293.9 385.6,321.4 425,321.4 C458.2,321.4 475.8,305.5 485,291.5 L460.2,277 C457.4,281.2 448.2,294.4 425,294.4 Z M425,217.9 C444.7,217.9 452.7,235.5 452.7,242 L393.6,242 C397,227.5 410.2,217.4 425,217.9 Z M558.1,193.8 C545.3,193.5 533.1,199 524.9,208.7 L524.3,208.7 L524.3,196.7 L494.8,196.7 L494.8,318.5 L524.3,318.5 L524.3,254.1 C524.3,231.7 536.1,222.1 550.3,222.1 C565.5,222.1 570.5,232.8 570.5,244 L570.5,318.4 L600,318.4 L600,235.2 C599.9,208.5 586.9,193.8 558.1,193.8 Z" id="Shape"></path>
        </g>
    </g>
</svg>