<?xml version="1.0" encoding="UTF-8"?>
<svg width="511px" height="415px" viewBox="0 0 511 415" version="1.1" xmlns="http://www.w3.org/2000/svg" xmlns:xlink="http://www.w3.org/1999/xlink">
    <title>Page 1</title>
    <g id="Page-1" stroke="none" stroke-width="1" fill="none" fill-rule="evenodd">
        <path d="M483.927,176.185 C468.325,126.544 458.298,103.559 453.708,94.274 L453.706,94.271 C450.016,86.67 440.664,70.314 440.292,69.664 C438.982,68.065 406.506,29.201 328.233,0.455 L317.89,28.615 C354.9,42.207 380.232,57.903 395.924,69.704 C352.58,56.779 301.041,48.869 255.394,48.869 C209.692,48.869 158.091,56.802 114.715,69.755 C129.243,58.976 155.661,42.291 192.898,28.615 L182.555,0.455 C104.283,29.201 71.806,68.065 70.496,69.664 C70.496,69.664 62.781,82.118 56.299,95.793 C52.414,103.989 42.35,122.703 26.763,176.509 C7.214,244.009 0.271,339.418 2.84217094e-14,343.235 C3.451,350.784 43.451,414.447 151.089,414.447 L180.584,371.737 C204.929,378.052 230.044,381.247 255.396,381.247 C280.802,381.247 305.967,378.038 330.358,371.698 L359.671,414.447 C469.45,414.447 505.284,352.951 510.901,343.063 C510.467,338.518 499.595,226.04 483.927,176.185 Z M455.197,358.016 C432.364,374.176 405.538,382.996 375.364,384.283 L360.231,362.214 C381.102,354.349 401.126,344.115 419.943,331.59 L403.32,306.617 C382.331,320.588 359.671,331.398 335.952,338.883 L335.952,338.912 C335.952,338.912 296.676,351.247 255.397,351.247 C214.118,351.247 174.952,338.948 174.952,338.948 L174.952,338.917 C151.193,331.431 128.495,320.609 107.474,306.617 L90.85,331.589 C109.7,344.136 129.762,354.384 150.673,362.254 L135.46,384.283 C105.273,383.002 78.436,374.181 55.595,358.015 C42.861,349.002 34.657,339.865 30.714,334.946 C32.454,314.398 39.574,240.119 55.583,184.855 C67.598,143.38 75.892,123.971 80.42,114.6 C80.42,114.6 196.529,78.868 255.397,78.868 C314.217,78.868 385.984,93.481 429.981,114.414 C434.738,125.252 443.207,146.673 455.308,185.179 C468.075,225.802 477.598,312.127 479.973,335.076 C475.972,340.047 467.805,349.092 455.197,358.016 L455.197,358.016 Z" id="Shape" fill="red" fill-rule="nonzero"></path>
        <polygon id="Path" fill="red" fill-rule="nonzero" points="156.038 204.991 186.038 204.991 186.038 254.991 156.038 254.991"></polygon>
        <polygon id="Path" fill="red" fill-rule="nonzero" points="324.754 204.991 354.754 204.991 354.754 254.991 324.754 254.991"></polygon>
    </g>
</svg>