<?xml version="1.0" encoding="UTF-8"?>
<svg width="160px" height="291px" viewBox="0 0 160 291" version="1.1" xmlns="http://www.w3.org/2000/svg" xmlns:xlink="http://www.w3.org/1999/xlink">
    <title>Page 1</title>
    <defs>
        <path d="M68,0.5 C58.8873,0.5 51.5,7.8873 51.5,17 L51.5,71 L32,71 C14.3269,71 0,85.3269 0,103 L0,259 C0,276.673 14.3269,291 32,291 L128,291 C145.673,291 160,276.673 160,259 L160,103 C160,85.3269 145.673,71 128,71 L108.5,71 L108.5,17 C108.5,7.8873 101.113,0.5 92,0.5 L68,0.5 Z M107.5,71 L107.5,17 C107.5,8.43959 100.56,1.5 92,1.5 L68,1.5 C59.4396,1.5 52.5,8.43959 52.5,17 L52.5,71 L107.5,71 Z" id="path-1"></path>
    </defs>
    <g id="Page-1" stroke="none" stroke-width="1" fill="none" fill-rule="evenodd">
        <rect id="Rectangle" fill="#000000" x="-87" y="-32" width="536" height="462"></rect>
        <g id="EDP">
            <path d="M55.7434,239 L52.7834,239 L51.2634,236.22 L50.0434,233.78 L49.8834,233.78 L48.6234,236.22 L47.0634,239 L44.3034,239 L48.4034,231.8 L44.5634,225.04 L47.5434,225.04 L48.8234,227.4 L50.0434,229.82 L50.1834,229.82 L51.4234,227.4 L52.7634,225.04 L55.5234,225.04 L51.6634,231.84 L55.7434,239 Z M69.8278,239 L69.8278,236.86 L73.6678,236.86 L73.6678,226.94 L73.4878,226.94 L70.4478,230.54 L68.8078,229.16 L72.2678,225.04 L76.2878,225.04 L76.2878,236.86 L79.4478,236.86 L79.4478,239 L69.8278,239 Z M85.44,230.68 C86.28,230.68 86.8933,230.513 87.28,230.18 C87.68,229.847 87.88,229.427 87.88,228.92 L87.88,228.78 C87.88,228.207 87.6867,227.76 87.3,227.44 C86.9267,227.12 86.4067,226.96 85.74,226.96 C85.1,226.96 84.54,227.107 84.06,227.4 C83.58,227.693 83.1667,228.107 82.82,228.64 L81.12,227.12 C81.36,226.8 81.6267,226.5 81.92,226.22 C82.2267,225.927 82.5667,225.68 82.94,225.48 C83.3267,225.267 83.7533,225.1 84.22,224.98 C84.6867,224.86 85.22,224.8 85.82,224.8 C86.5267,224.8 87.1733,224.887 87.76,225.06 C88.36,225.22 88.8667,225.46 89.28,225.78 C89.7067,226.1 90.0333,226.487 90.26,226.94 C90.5,227.38 90.62,227.88 90.62,228.44 C90.62,228.88 90.5467,229.28 90.4,229.64 C90.2533,230 90.0533,230.313 89.8,230.58 C89.56,230.847 89.2733,231.067 88.94,231.24 C88.62,231.413 88.2733,231.54 87.9,231.62 L87.9,231.72 C88.3133,231.8 88.7,231.933 89.06,232.12 C89.42,232.293 89.7333,232.52 90,232.8 C90.2667,233.08 90.48,233.42 90.64,233.82 C90.8,234.207 90.88,234.647 90.88,235.14 C90.88,235.753 90.7533,236.313 90.5,236.82 C90.2467,237.327 89.8867,237.76 89.42,238.12 C88.9667,238.48 88.4133,238.76 87.76,238.96 C87.12,239.147 86.4,239.24 85.6,239.24 C84.9333,239.24 84.34,239.167 83.82,239.02 C83.3,238.887 82.84,238.7 82.44,238.46 C82.04,238.22 81.6933,237.947 81.4,237.64 C81.1067,237.32 80.8467,236.993 80.62,236.66 L82.56,235.16 C82.8933,235.72 83.2867,236.18 83.74,236.54 C84.2067,236.9 84.84,237.08 85.64,237.08 C86.44,237.08 87.0533,236.9 87.48,236.54 C87.92,236.167 88.14,235.653 88.14,235 L88.14,234.84 C88.14,234.2 87.9067,233.713 87.44,233.38 C86.9733,233.033 86.3133,232.86 85.46,232.86 L84.06,232.86 L84.06,230.68 L85.44,230.68 Z M97.4322,230.68 C98.2722,230.68 98.8855,230.513 99.2722,230.18 C99.6722,229.847 99.8722,229.427 99.8722,228.92 L99.8722,228.78 C99.8722,228.207 99.6789,227.76 99.2922,227.44 C98.9189,227.12 98.3989,226.96 97.7322,226.96 C97.0922,226.96 96.5322,227.107 96.0522,227.4 C95.5722,227.693 95.1589,228.107 94.8122,228.64 L93.1122,227.12 C93.3522,226.8 93.6189,226.5 93.9122,226.22 C94.2189,225.927 94.5589,225.68 94.9322,225.48 C95.3189,225.267 95.7455,225.1 96.2122,224.98 C96.6789,224.86 97.2122,224.8 97.8122,224.8 C98.5189,224.8 99.1655,224.887 99.7522,225.06 C100.352,225.22 100.859,225.46 101.272,225.78 C101.699,226.1 102.026,226.487 102.252,226.94 C102.492,227.38 102.612,227.88 102.612,228.44 C102.612,228.88 102.539,229.28 102.392,229.64 C102.246,230 102.046,230.313 101.792,230.58 C101.552,230.847 101.266,231.067 100.932,231.24 C100.612,231.413 100.266,231.54 99.8922,231.62 L99.8922,231.72 C100.306,231.8 100.692,231.933 101.052,232.12 C101.412,232.293 101.726,232.52 101.992,232.8 C102.259,233.08 102.472,233.42 102.632,233.82 C102.792,234.207 102.872,234.647 102.872,235.14 C102.872,235.753 102.746,236.313 102.492,236.82 C102.239,237.327 101.879,237.76 101.412,238.12 C100.959,238.48 100.406,238.76 99.7522,238.96 C99.1122,239.147 98.3922,239.24 97.5922,239.24 C96.9255,239.24 96.3322,239.167 95.8122,239.02 C95.2922,238.887 94.8322,238.7 94.4322,238.46 C94.0322,238.22 93.6855,237.947 93.3922,237.64 C93.0989,237.32 92.8389,236.993 92.6122,236.66 L94.5522,235.16 C94.8855,235.72 95.2789,236.18 95.7322,236.54 C96.1989,236.9 96.8322,237.08 97.6322,237.08 C98.4322,237.08 99.0455,236.9 99.4722,236.54 C99.9122,236.167 100.132,235.653 100.132,235 L100.132,234.84 C100.132,234.2 99.8989,233.713 99.4322,233.38 C98.9655,233.033 98.3055,232.86 97.4522,232.86 L96.0522,232.86 L96.0522,230.68 L97.4322,230.68 Z M107.324,239 L112.304,227.18 L107.324,227.18 L107.324,229.74 L105.084,229.74 L105.084,225.04 L114.904,225.04 L114.904,227.32 L110.084,239 L107.324,239 Z" id="Shape" fill="#FFFFFF" fill-rule="nonzero" opacity="0.5"></path>
            <g id="Clipped">
                <mask id="mask-2" fill="white">
                    <use xlink:href="#path-1"></use>
                </mask>
                <g id="Shape"></g>
                <path d="M51.5,71 L51.5,72 L52.5,72 L52.5,71 L51.5,71 Z M108.5,71 L107.5,71 L107.5,72 L108.5,72 L108.5,71 Z M107.5,71 L107.5,72 L108.5,72 L108.5,71 L107.5,71 Z M52.5,71 L51.5,71 L51.5,72 L52.5,72 L52.5,71 Z M52.5,17 C52.5,8.43959 59.4396,1.5 68,1.5 L68,-0.5 C58.335,-0.5 50.5,7.33502 50.5,17 L52.5,17 Z M52.5,71 L52.5,17 L50.5,17 L50.5,71 L52.5,71 Z M32,72 L51.5,72 L51.5,70 L32,70 L32,72 Z M1,103 C1,85.8792 14.8792,72 32,72 L32,70 C13.7746,70 -1,84.7746 -1,103 L1,103 Z M1,259 L1,103 L-1,103 L-1,259 L1,259 Z M32,290 C14.8792,290 1,276.121 1,259 L-1,259 C-1,277.225 13.7746,292 32,292 L32,290 Z M128,290 L32,290 L32,292 L128,292 L128,290 Z M159,259 C159,276.121 145.121,290 128,290 L128,292 C146.225,292 161,277.225 161,259 L159,259 Z M159,103 L159,259 L161,259 L161,103 L159,103 Z M128,72 C145.121,72 159,85.8792 159,103 L161,103 C161,84.7746 146.225,70 128,70 L128,72 Z M108.5,72 L128,72 L128,70 L108.5,70 L108.5,72 Z M107.5,17 L107.5,71 L109.5,71 L109.5,17 L107.5,17 Z M92,1.5 C100.56,1.5 107.5,8.43959 107.5,17 L109.5,17 C109.5,7.33502 101.665,-0.5 92,-0.5 L92,1.5 Z M68,1.5 L92,1.5 L92,-0.5 L68,-0.5 L68,1.5 Z M108.5,71 L108.5,17 L106.5,17 L106.5,71 L108.5,71 Z M108.5,17 C108.5,7.8873 101.113,0.5 92,0.5 L92,2.5 C100.008,2.5 106.5,8.99187 106.5,17 L108.5,17 Z M92,0.5 L68,0.5 L68,2.5 L92,2.5 L92,0.5 Z M68,0.5 C58.8873,0.5 51.5,7.8873 51.5,17 L53.5,17 C53.5,8.99187 59.9919,2.5 68,2.5 L68,0.5 Z M51.5,17 L51.5,71 L53.5,71 L53.5,17 L51.5,17 Z M52.5,72 L107.5,72 L107.5,70 L52.5,70 L52.5,72 Z" id="Shape" fill="#FFFFFF" fill-rule="nonzero" mask="url(#mask-2)"></path>
            </g>
        </g>
        <path d="M48.768,148 L48.768,144.544 L38.848,144.544 L38.848,138.4 L48.416,138.4 L48.416,134.944 L38.848,134.944 L38.848,129.12 L48.768,129.12 L48.768,125.664 L34.656,125.664 L34.656,148 L48.768,148 Z M68.48,148 L68.48,144.544 L58.592,144.544 L58.592,125.664 L54.4,125.664 L54.4,148 L68.48,148 Z M87.104,148 L87.104,144.864 L82.08,144.864 L82.08,128.8 L87.104,128.8 L87.104,125.664 L72.896,125.664 L72.896,128.8 L77.92,128.8 L77.92,144.864 L72.896,144.864 L72.896,148 L87.104,148 Z M101.28,148 L101.28,129.12 L108,129.12 L108,125.664 L90.4,125.664 L90.4,129.12 L97.12,129.12 L97.12,148 L101.28,148 Z M125.568,148 L125.568,144.544 L115.648,144.544 L115.648,138.4 L125.216,138.4 L125.216,134.944 L115.648,134.944 L115.648,129.12 L125.568,129.12 L125.568,125.664 L111.456,125.664 L111.456,148 L125.568,148 Z M41.28,190 C44.1813333,190 46.3413333,189.045333 47.76,187.136 C49.1786667,185.226667 49.888,182.458667 49.888,178.832 C49.888,175.226667 49.1786667,172.464 47.76,170.544 C46.3413333,168.624 44.1813333,167.664 41.28,167.664 L41.28,167.664 L34.336,167.664 L34.336,190 L41.28,190 Z M40.992,186.64 L38.464,186.64 L38.464,171.024 L40.992,171.024 C42.528,171.024 43.664,171.525333 44.4,172.528 C45.136,173.530667 45.504,174.981333 45.504,176.88 L45.504,176.88 L45.504,180.752 C45.504,182.672 45.136,184.133333 44.4,185.136 C43.664,186.138667 42.528,186.64 40.992,186.64 L40.992,186.64 Z M57.952,190 L57.952,181.328 L60.48,181.328 L64.736,190 L69.344,190 L64.576,180.848 C65.984,180.549333 67.0666667,179.84 67.824,178.72 C68.5813333,177.6 68.96,176.218667 68.96,174.576 C68.96,172.442667 68.384,170.757333 67.232,169.52 C66.08,168.282667 64.416,167.664 62.24,167.664 L62.24,167.664 L53.76,167.664 L53.76,190 L57.952,190 Z M61.376,178.064 L57.952,178.064 L57.952,171.088 L61.376,171.088 C62.5066667,171.088 63.3173333,171.317333 63.808,171.776 C64.2986667,172.234667 64.544,172.965333 64.544,173.968 L64.544,173.968 L64.544,175.184 C64.544,176.186667 64.2986667,176.917333 63.808,177.376 C63.3173333,177.834667 62.5066667,178.064 61.376,178.064 L61.376,178.064 Z M80,190.384 C82.9013333,190.384 85.0346667,189.370667 86.4,187.344 C87.7653333,185.317333 88.448,182.48 88.448,178.832 C88.448,175.184 87.7653333,172.346667 86.4,170.32 C85.0346667,168.293333 82.9013333,167.28 80,167.28 C78.5493333,167.28 77.2906667,167.541333 76.224,168.064 C75.1573333,168.586667 74.2773333,169.338667 73.584,170.32 C72.8906667,171.301333 72.3786667,172.512 72.048,173.952 C71.7173333,175.392 71.552,177.018667 71.552,178.832 C71.552,180.666667 71.7173333,182.298667 72.048,183.728 C72.3786667,185.157333 72.8906667,186.362667 73.584,187.344 C74.2773333,188.325333 75.1573333,189.077333 76.224,189.6 C77.2906667,190.122667 78.5493333,190.384 80,190.384 Z M80,186.96 C78.5066667,186.96 77.4666667,186.405333 76.88,185.296 C76.2933333,184.186667 76,182.672 76,180.752 L76,180.752 L76,176.912 C76,174.992 76.2933333,173.477333 76.88,172.368 C77.4666667,171.258667 78.5066667,170.704 80,170.704 C81.4933333,170.704 82.5333333,171.258667 83.12,172.368 C83.7066667,173.477333 84,174.992 84,176.912 L84,176.912 L84,180.72 C84,181.68 83.9306667,182.549333 83.792,183.328 C83.6533333,184.106667 83.4293333,184.762667 83.12,185.296 C82.8106667,185.829333 82.4,186.24 81.888,186.528 C81.376,186.816 80.7466667,186.96 80,186.96 Z M96.352,190 L96.352,181.488 L100.64,181.488 C102.816,181.488 104.48,180.869333 105.632,179.632 C106.784,178.394667 107.36,176.709333 107.36,174.576 C107.36,172.442667 106.784,170.757333 105.632,169.52 C104.48,168.282667 102.816,167.664 100.64,167.664 L100.64,167.664 L92.16,167.664 L92.16,190 L96.352,190 Z M99.776,178.064 L96.352,178.064 L96.352,171.088 L99.776,171.088 C100.906667,171.088 101.717333,171.317333 102.208,171.776 C102.698667,172.234667 102.944,172.965333 102.944,173.968 L102.944,173.968 L102.944,175.184 C102.944,176.186667 102.698667,176.917333 102.208,177.376 C101.717333,177.834667 100.906667,178.064 99.776,178.064 L99.776,178.064 Z" id="ELITEDROP" fill="#FFFFFF" fill-rule="nonzero"></path>
    </g>
</svg>