<?xml version="1.0" encoding="UTF-8"?>
<svg width="160px" height="160px" viewBox="0 0 160 160" version="1.1" xmlns="http://www.w3.org/2000/svg" xmlns:xlink="http://www.w3.org/1999/xlink">
    <title>electronics</title>
    <g id="Page-1" stroke="none" stroke-width="1" fill="none" fill-rule="evenodd">
        <g id="electronics" fill="#B7B7B7" fill-rule="nonzero">
            <g id="Group-22">
                <polygon id="Fill-1" points="30.5634783 17.9212174 34.0417391 17.9212174 34.0417391 0.869565217 30.5634783 0.869565217"></polygon>
                <polygon id="Fill-2" points="0.869565217 34.0417391 17.9212174 34.0417391 17.9212174 30.5634783 0.869565217 30.5634783"></polygon>
                <polygon id="Fill-3" points="0.869565217 105.584348 17.9212174 105.584348 17.9212174 102.106087 0.869565217 102.106087"></polygon>
                <polygon id="Fill-4" points="0.869565217 81.7391304 17.9212174 81.7391304 17.9212174 78.2608696 0.869565217 78.2608696"></polygon>
                <polygon id="Fill-5" points="102.106087 17.9212174 105.584348 17.9212174 105.584348 0.869565217 102.106087 0.869565217"></polygon>
                <polygon id="Fill-6" points="54.4156522 17.9212174 57.893913 17.9212174 57.893913 0.869565217 54.4156522 0.869565217"></polygon>
                <path d="M138.6,136.005217 L138.6,23.9947826 C138.6,22.5613565 137.43153,21.3996522 136.00487,21.3996522 L23.9944348,21.3996522 C22.5610087,21.3996522 21.3993043,22.5681217 21.3993043,23.9947826 L21.3993043,136.005217 C21.3993043,137.438643 22.5677739,138.600348 23.9944348,138.600348 L136.00487,138.600348 C137.438296,138.600348 138.6,137.438661 138.6,136.005217 Z" id="Fill-7"></path>
                <polygon id="Fill-8" points="125.958261 17.9212174 129.436522 17.9212174 129.436522 0.869565217 125.958261 0.869565217"></polygon>
                <polygon id="Fill-9" points="0.869565217 129.436522 17.9212174 129.436522 17.9212174 125.958261 0.869565217 125.958261"></polygon>
                <polygon id="Fill-10" points="78.2608696 17.9212174 81.7391304 17.9212174 81.7391304 0.869565217 78.2608696 0.869565217"></polygon>
                <polygon id="Fill-11" points="0.869565217 57.893913 17.9212174 57.893913 17.9212174 54.4156522 0.869565217 54.4156522"></polygon>
                <polygon id="Fill-12" points="142.078261 81.7391304 159.129913 81.7391304 159.129913 78.2608696 142.078261 78.2608696"></polygon>
                <polygon id="Fill-13" points="142.078261 129.436522 159.129913 129.436522 159.129913 125.958261 142.078261 125.958261"></polygon>
                <polygon id="Fill-14" points="142.078261 105.584348 159.129913 105.584348 159.129913 102.106087 142.078261 102.106087"></polygon>
                <polygon id="Fill-15" points="142.078261 34.0417391 159.129913 34.0417391 159.129913 30.5634783 142.078261 30.5634783"></polygon>
                <polygon id="Fill-16" points="142.078261 57.893913 159.129913 57.893913 159.129913 54.4156522 142.078261 54.4156522"></polygon>
                <polygon id="Fill-17" points="30.5634783 159.129913 34.0417391 159.129913 34.0417391 142.078261 30.5634783 142.078261"></polygon>
                <polygon id="Fill-18" points="54.4156522 159.129913 57.893913 159.129913 57.893913 142.078261 54.4156522 142.078261"></polygon>
                <polygon id="Fill-19" points="125.958261 159.129913 129.436522 159.129913 129.436522 142.078261 125.958261 142.078261"></polygon>
                <polygon id="Fill-20" points="78.2608696 159.129913 81.7391304 159.129913 81.7391304 142.078261 78.2608696 142.078261"></polygon>
                <polygon id="Fill-21" points="102.106087 159.129913 105.584348 159.129913 105.584348 142.078261 102.106087 142.078261"></polygon>
            </g>
        </g>
    </g>
</svg>