<?xml version="1.0" encoding="UTF-8"?>
<svg width="121px" height="121px" viewBox="0 0 121 121" version="1.1" xmlns="http://www.w3.org/2000/svg" xmlns:xlink="http://www.w3.org/1999/xlink">
    <title>etherscan</title>
    <g id="Page-1" stroke="none" stroke-width="1" fill="none" fill-rule="evenodd">
        <g id="etherscan" transform="translate(4.000000, 4.000000)">
            <rect id="Rectangle" stroke="#000000" stroke-width="7" x="0" y="0" width="113" height="113"></rect>
            <path d="" id="Path" stroke="#000000" stroke-width="3" fill="#2081E2" fill-rule="nonzero"></path>
            <path d="M40.2940091,54.8017148 C40.2939041,54.166787 40.5379693,53.55799 40.9721991,53.1100367 C41.4064288,52.6620833 41.9950215,52.4119064 42.6077353,52.4148643 L46.4436593,52.4278988 C47.7173064,52.4278988 48.7498013,53.4978155 48.7498013,54.8176246 L48.7498013,69.848342 C49.1819139,69.7156966 49.736113,69.5742338 50.3432164,69.426637 C51.211075,69.214986 51.8244862,68.4125939 51.8247189,67.4887107 L51.8247189,48.8443645 C51.8246698,48.2104682 52.0676295,47.6025144 52.5001497,47.154246 C52.93267,46.7059776 53.5193208,46.4541145 54.1310458,46.4540637 L57.974554,46.4540637 C59.2481165,46.4542753 60.2804917,47.524068 60.2806959,48.8437894 L60.2806959,66.1488388 C60.2806959,66.1488388 61.2425904,65.7451521 62.1802525,65.3351398 C62.892049,65.0231146 63.3547909,64.3002589 63.3554286,63.4993811 L63.3554286,42.8689959 C63.3553795,42.2352188 63.5983062,41.6273822 64.0307623,41.1792162 C64.4632185,40.7310502 65.0497757,40.4792702 65.6613855,40.4792702 L69.5048938,40.4792702 C70.7785708,40.4792702 71.8111185,41.5491558 71.8112207,42.8689959 L71.8112207,59.8569997 C75.1434451,57.3545637 78.5206195,54.3445482 81.2006054,50.7253606 C81.9903658,49.658307 82.2115841,48.252157 81.7897658,46.9804282 C78.0743882,35.7601558 67.9598409,28.1660014 56.5133994,28.0025517 C41.4488374,27.7928493 28.9987786,40.5358169 29,56.1482957 C28.9854668,61.0885962 30.229774,65.945358 32.6073626,70.2274932 C33.276779,71.4232555 34.554047,72.1089181 35.8827982,71.9858115 C36.6099534,71.9194888 37.5152441,71.8257552 38.591456,71.694835 C39.5611775,71.5804823 40.2939551,70.730692 40.2949341,69.7193387 L40.2949341,54.8017148" id="Path_1" fill="#000000" fill-rule="nonzero"></path>
            <path d="M40,77.4491411 C48.427362,83.8688668 59.5820355,84.7930739 68.8684381,79.8409856 C78.1548406,74.8888971 84.0016665,64.8984313 84,53.9857009 C84,53.3176091 83.9703732,52.6570261 83.9277267,52 C73.8054229,67.8081473 55.1157121,75.1984561 40,77.449734" id="Path_2" fill="#000000" fill-rule="nonzero"></path>
        </g>
        <rect id="Rectangle" fill="#000000" x="46" y="18" width="30" height="6"></rect>
    </g>
</svg>