<svg width="126" height="108" viewBox="0 0 126 108" fill="none" xmlns="http://www.w3.org/2000/svg">
<path d="M50.2317 38.22C49.1917 38.14 48.2984 37.9067 47.5517 37.52C46.8184 37.12 46.2184 36.6067 45.7517 35.98L47.3317 34.36C48.2117 35.3467 49.2251 35.9067 50.3717 36.04V31.9L49.9117 31.82C49.2584 31.7 48.6917 31.52 48.2117 31.28C47.7451 31.04 47.3584 30.7467 47.0517 30.4C46.7584 30.0533 46.5384 29.6667 46.3917 29.24C46.2584 28.8133 46.1917 28.3533 46.1917 27.86C46.1917 26.7267 46.5384 25.8133 47.2317 25.12C47.9384 24.4267 48.9384 24.0067 50.2317 23.86V21.78H52.1917V23.84C53.0584 23.9467 53.7984 24.1667 54.4117 24.5C55.0384 24.8333 55.5651 25.2667 55.9917 25.8L54.4117 27.42C53.7984 26.6867 53.0117 26.24 52.0517 26.08V29.88L52.5517 29.96C53.8584 30.2 54.8051 30.6667 55.3917 31.36C55.9784 32.04 56.2717 32.88 56.2717 33.88C56.2717 35.0133 55.9184 35.96 55.2117 36.72C54.5184 37.4667 53.5117 37.94 52.1917 38.14V40.26H50.2317V38.22ZM48.6517 27.78C48.6517 28.2733 48.7851 28.6533 49.0517 28.92C49.3184 29.1867 49.7584 29.3933 50.3717 29.54V26.02C49.2251 26.18 48.6517 26.7667 48.6517 27.78ZM53.8317 34.04C53.8317 33.5067 53.6917 33.1067 53.4117 32.84C53.1317 32.56 52.6784 32.3533 52.0517 32.22V36.02C52.6517 35.9133 53.0984 35.6933 53.3917 35.36C53.6851 35.0267 53.8317 34.5867 53.8317 34.04ZM62.2239 38.22C61.1839 38.14 60.2906 37.9067 59.5439 37.52C58.8106 37.12 58.2106 36.6067 57.7439 35.98L59.3239 34.36C60.2039 35.3467 61.2172 35.9067 62.3639 36.04V31.9L61.9039 31.82C61.2506 31.7 60.6839 31.52 60.2039 31.28C59.7372 31.04 59.3506 30.7467 59.0439 30.4C58.7506 30.0533 58.5306 29.6667 58.3839 29.24C58.2506 28.8133 58.1839 28.3533 58.1839 27.86C58.1839 26.7267 58.5306 25.8133 59.2239 25.12C59.9306 24.4267 60.9306 24.0067 62.2239 23.86V21.78H64.1839V23.84C65.0506 23.9467 65.7906 24.1667 66.4039 24.5C67.0306 24.8333 67.5572 25.2667 67.9839 25.8L66.4039 27.42C65.7906 26.6867 65.0039 26.24 64.0439 26.08V29.88L64.5439 29.96C65.8506 30.2 66.7972 30.6667 67.3839 31.36C67.9706 32.04 68.2639 32.88 68.2639 33.88C68.2639 35.0133 67.9106 35.96 67.2039 36.72C66.5106 37.4667 65.5039 37.94 64.1839 38.14V40.26H62.2239V38.22ZM60.6439 27.78C60.6439 28.2733 60.7772 28.6533 61.0439 28.92C61.3106 29.1867 61.7506 29.3933 62.3639 29.54V26.02C61.2172 26.18 60.6439 26.7667 60.6439 27.78ZM65.8239 34.04C65.8239 33.5067 65.6839 33.1067 65.4039 32.84C65.1239 32.56 64.6706 32.3533 64.0439 32.22V36.02C64.6439 35.9133 65.0906 35.6933 65.3839 35.36C65.6772 35.0267 65.8239 34.5867 65.8239 34.04ZM74.2161 38.22C73.1761 38.14 72.2828 37.9067 71.5361 37.52C70.8028 37.12 70.2028 36.6067 69.7361 35.98L71.3161 34.36C72.1961 35.3467 73.2094 35.9067 74.3561 36.04V31.9L73.8961 31.82C73.2428 31.7 72.6761 31.52 72.1961 31.28C71.7294 31.04 71.3428 30.7467 71.0361 30.4C70.7428 30.0533 70.5228 29.6667 70.3761 29.24C70.2428 28.8133 70.1761 28.3533 70.1761 27.86C70.1761 26.7267 70.5228 25.8133 71.2161 25.12C71.9228 24.4267 72.9228 24.0067 74.2161 23.86V21.78H76.1761V23.84C77.0428 23.9467 77.7828 24.1667 78.3961 24.5C79.0228 24.8333 79.5494 25.2667 79.9761 25.8L78.3961 27.42C77.7828 26.6867 76.9961 26.24 76.0361 26.08V29.88L76.5361 29.96C77.8428 30.2 78.7894 30.6667 79.3761 31.36C79.9628 32.04 80.2561 32.88 80.2561 33.88C80.2561 35.0133 79.9028 35.96 79.1961 36.72C78.5028 37.4667 77.4961 37.94 76.1761 38.14V40.26H74.2161V38.22ZM72.6361 27.78C72.6361 28.2733 72.7694 28.6533 73.0361 28.92C73.3028 29.1867 73.7428 29.3933 74.3561 29.54V26.02C73.2094 26.18 72.6361 26.7667 72.6361 27.78ZM77.8161 34.04C77.8161 33.5067 77.6761 33.1067 77.3961 32.84C77.1161 32.56 76.6628 32.3533 76.0361 32.22V36.02C76.6361 35.9133 77.0828 35.6933 77.3761 35.36C77.6694 35.0267 77.8161 34.5867 77.8161 34.04Z" fill="white"/>
<path d="M10.972 47.127V46.627H10.472H0.5V28.9275L16.0058 0.5H109.666L125.172 28.9275V46.627H115.2H114.7V47.127V107.114H65.954V66.194V65.694H65.454H36.654H36.154V66.194V107.114H10.972V47.127Z" stroke="white"/>
</svg>
