<?xml version="1.0" encoding="UTF-8"?>
<svg width="138px" height="24px" viewBox="0 0 138 24" version="1.1" xmlns="http://www.w3.org/2000/svg" xmlns:xlink="http://www.w3.org/1999/xlink">
    <title>hs</title>
    <g id="Page-1" stroke="none" stroke-width="1" fill="none" fill-rule="evenodd">
        <g id="hs" fill="#FFFFFF">
            <path d="M77.5308,16.7662 C83.129,16.7662 83.129,12.633 83.129,8.3828 C83.129,4.09 83.129,0.0001 77.5308,0.0001 C71.9341,0.0001 71.9341,4.09 71.9341,8.3828 C71.9341,12.633 71.9341,16.7662 77.5308,16.7662 Z M77.5308,2.4263 C79.4411,2.4263 79.688,4.2272 79.688,8.3828 C79.688,12.5432 79.4411,14.34 77.5308,14.34 C75.6211,14.34 75.3711,12.5432 75.3711,8.3828 C75.3711,4.2272 75.6211,2.4263 77.5308,2.4263 Z M96.3319,12.2033 C96.3319,9.9801 95.7032,8.4301 93.2968,8.0899 L93.2968,8.0471 C95.1411,7.688 96.0629,6.3398 96.0629,4.4732 C96.0629,1.0121 93.9301,0.27 91.344,0.27 L85.3199,0.27 L85.3199,16.4961 L91.32,16.4961 C92.7577,16.4961 96.3319,16.3161 96.3319,12.2033 L96.3319,12.2033 Z M88.7149,2.7662 L90.8052,2.7662 C91.9339,2.754 92.832,3.707 92.7577,4.8321 C92.7577,6.4059 91.727,6.898 90.984,6.898 L88.7149,6.898 L88.7149,2.7662 Z M88.7149,14.0041 L88.7149,9.395 L90.6909,9.395 C92.398,9.395 92.938,10.2701 92.938,11.7109 C92.938,13.9803 91.32,14.0041 90.6019,14.0041 L88.7149,14.0041 Z M102.023,0.27 L98.6288,0.27 L98.6288,16.4961 L102.023,16.4961 L102.023,0.27 Z M60.695,4.484 L60.7378,4.484 L65.1641,16.4961 L69.6409,16.4961 L69.6409,0.27 L66.4692,0.27 L66.4692,11.6559 L66.4261,11.6559 L62.1089,0.27 L57.523,0.27 L57.523,16.4961 L60.695,16.4961 L60.695,4.484 Z M113.8049,14.0041 L108.164,14.0041 L108.164,9.2621 L113.1989,9.2621 L113.1989,6.7662 L108.164,6.7662 L108.164,2.9059 L113.6249,2.9059 L113.6249,0.27 L104.7701,0.27 L104.7701,16.4961 L113.8049,16.4961 L113.8049,14.0041 Z M3.398,9.2621 L7.2852,9.2621 L7.2852,16.4961 L10.6802,16.4961 L10.6802,0.27 L7.2852,0.27 L7.2852,6.7662 L3.398,6.7662 L3.398,0.27 L0.0038,0.27 L0.0038,16.4961 L3.398,16.4961 L3.398,9.2621 Z M134.152,0.27 L131.566,7.125 L129.1409,0.27 L114.746,0.27 L114.746,2.9059 L118.9651,2.9059 L118.9651,16.4961 L122.2111,16.4961 L122.2111,2.9059 L126.484,2.9059 L129.6801,10.8789 L129.6801,16.5 L133.074,16.5 L133.074,10.8789 L137.6131,0.27 L134.152,0.27 Z M16.8827,0.27 L13.488,0.27 L13.488,16.4961 L16.8827,16.4961 L16.8827,0.27 Z M35.9571,9.2621 L39.8479,9.2621 L39.8479,16.4961 L43.2421,16.4961 L43.2421,0.27 L39.8479,0.27 L39.8479,6.7662 L35.9571,6.7662 L35.9571,0.27 L32.566,0.27 L32.566,16.4961 L35.9571,16.4961 L35.9571,9.2621 Z M25.5,16.7699 C27.039,16.7033 28.57,16.523 30.0859,16.2271 L30.0859,8.0001 L24.8481,8.0001 L24.8481,10.4963 L26.6909,10.4963 L26.6909,14.0943 C26.148,14.289 25.582,14.395 25.004,14.4061 C23.0699,14.4061 22.5781,13.5078 22.5781,8.4301 C22.5781,5.2811 22.5781,2.4263 24.691,2.4263 C26.4879,2.4263 26.734,3.7541 26.711,5.2578 L30.0859,5.2578 C30.2892,1.8673 28.219,0.0001 24.8909,0.0001 C19.3398,0.0001 19.1371,4.156 19.1371,8.2501 C19.1371,14.4061 19.7891,16.7662 25.5,16.7662 L25.5,16.7699 Z M49.8358,16.7699 C52.4181,16.7699 55.5,16.2733 55.5,12.0701 C55.5,6.9691 48.6642,7.2381 48.6642,4.156 C48.563,3.152 49.414,2.3129 50.418,2.4263 C51.7891,2.4263 51.9921,3.6642 51.9921,4.8791 L55.297,4.8791 C55.5229,1.4841 53.8788,0.0001 50.5782,0.0001 C46.441,0.0001 45.2269,2.0232 45.2269,4.5631 C45.2269,9.395 52.059,9.5739 52.059,12.4961 C52.203,13.5123 51.375,14.4061 50.352,14.34 C48.4879,14.34 48.4179,13.0353 48.4179,11.4841 L45.0271,11.4841 C44.8442,14.297 45.6328,16.7662 49.8358,16.7662 L49.8358,16.7699 Z M-0.0001,24.0002 L133.059,24.0002 L133.059,21.504 L-0.0001,21.504 L-0.0001,24.0002 Z" id="path2"></path>
        </g>
    </g>
</svg>