<?xml version="1.0" encoding="UTF-8"?>
<svg fill="#000" width="45pt" height="45pt" version="1.1" viewBox="0 0 100 100" xmlns="http://www.w3.org/2000/svg">
 <g>
  <path d="m50 32.422c-9.6914 0-17.578 7.8867-17.578 17.578s7.8867 17.578 17.578 17.578 17.578-7.8867 17.578-17.578-7.8867-17.578-17.578-17.578z"/>
  <path d="m75.391 16.797h-50.781c-4.3086 0-7.8125 3.5039-7.8125 7.8125v50.781c0 4.3086 3.5039 7.8125 7.8125 7.8125h50.781c4.3086 0 7.8125-3.5039 7.8125-7.8125v-50.781c0-4.3086-3.5039-7.8125-7.8125-7.8125zm-25.391 52.734c-10.77 0-19.531-8.7617-19.531-19.531s8.7617-19.531 19.531-19.531 19.531 8.7617 19.531 19.531-8.7617 19.531-19.531 19.531zm21.484-35.156c-3.2305 0-5.8594-2.6289-5.8594-5.8594s2.6289-5.8594 5.8594-5.8594 5.8594 2.6289 5.8594 5.8594-2.6289 5.8594-5.8594 5.8594z"/>
  <path d="m71.484 24.609c-2.1523 0-3.9062 1.7539-3.9062 3.9062s1.7539 3.9062 3.9062 3.9062 3.9062-1.7539 3.9062-3.9062-1.7539-3.9062-3.9062-3.9062z"/>
 </g>
</svg>
