<?xml version="1.0" encoding="UTF-8"?>
<svg width="163px" height="35px" viewBox="0 0 163 35" version="1.1" xmlns="http://www.w3.org/2000/svg" xmlns:xlink="http://www.w3.org/1999/xlink">
    <title>&lt;launched&gt;</title>
    <g id="Page-1" stroke="none" stroke-width="1" fill="none" fill-rule="evenodd">
        <path d="M9.22929936,22.5450928 C11.7261146,22.9523431 13.343949,23.0861538 14.0828025,22.9465252 L14.0828025,22.9465252 L15,20.3983024 C13.3566879,20.4215738 11.4458599,20.3692131 9.26751592,20.2412202 L9.26751592,20.2412202 L9.17197452,20.2237666 C8.87898089,20.1888594 8.59872611,20.1539523 8.33121019,20.1190451 L8.33121019,20.1190451 L8.9044586,20.0492308 C9.14649682,19.9328736 9.45859873,19.8572414 9.84076433,19.8223342 C12.3375796,19.4267197 13.9044586,19.0485588 14.5414013,18.6878515 L14.5414013,18.6878515 L14.4458599,16 C12.9171975,16.5352431 11.1019108,17.082122 9,17.6406366 L9,17.6406366 L8.9044586,17.6580902 C6.7133758,18.0886118 5.08917197,18.3620513 4.03184713,18.4784085 C3.47133758,18.5714943 2.70700637,18.66458 1.7388535,18.7576658 C1.28025478,18.7809372 0.917197452,18.8914766 0.649681529,19.0892838 C0.458598726,19.1940053 0.292993631,19.3627233 0.152866242,19.5954377 L0.152866242,19.5954377 L0,20.5030239 L0.401273885,20.7648276 L0.401273885,20.7822812 L0.439490446,20.7997347 L0.611464968,20.9044562 L1.49044586,21.0091777 L1.52866242,21.1662599 L1.75796178,21.2360743 L2.36942675,21.288435 L8.27388535,22.4752785 C8.54140127,22.4403714 8.85987261,22.4636428 9.22929936,22.5450928 Z M20.0904255,29 C20.5248227,28.721519 21.2881206,28.4556962 22.3803191,28.2025316 L22.3803191,28.2025316 L22.5292553,28.335443 L22.6595745,28.3164557 L23.7765957,28.3164557 L23.8696809,25.9240506 L23.9069149,23.5886076 L24,22.8101266 L23.8696809,22.6772152 L23.8696809,22.5443038 L23.9441489,21.8607595 L23.7765957,21.3670886 L23.9069149,21.3481013 L23.7579787,20.9493671 C23.4973404,16.6708861 22.6906028,12.6962025 21.337766,9.02531646 C21.3253546,8.41772152 20.3634752,8.12658228 18.4521277,8.15189873 L18.4521277,8.15189873 L17,8 L17,8.11392405 C17.6578014,8.98734177 18.123227,10.335443 18.3962766,12.1582278 C18.6320922,13.3101266 18.8430851,14.5506329 19.0292553,15.8797468 L19.0292553,15.8797468 L19.6808511,22.2974684 C19.7304965,23.0189873 19.7801418,23.7594937 19.8297872,24.5189873 L19.8297872,24.5189873 L19.7180851,24.9177215 L19.8484043,25.0506329 L19.8484043,25.2025316 L19.7739362,25.9810127 L19.9228723,26.0949367 L19.8111702,26.778481 L19.9414894,28.7531646 L20.0904255,28.8860759 L20.0904255,29 Z M42.9583029,29 C44.9334309,28.6087602 46.2745672,28.4510022 46.9817118,28.5267261 L46.9817118,28.5267261 L47,28.2616927 C46.1831261,28.1607275 44.5737625,27.2331106 42.1719093,25.4788419 L42.1719093,25.4788419 L39.9773226,23.2449889 C37.3925872,19.6607275 35.4296513,16.2973274 34.088515,13.1547884 L34.088515,13.1547884 L32.0585223,13.0601336 L31.9305048,13.0412027 L31.8024872,12.9276169 L31.8024872,13.0412027 C30.5223116,12.9023756 29.4067301,12.5553081 28.4557425,12 L28.4557425,12 L27.7790783,12.1893096 L27.8522312,12.8708241 L27.5230432,16.013363 L27.3950256,16.1458797 L27.5230432,16.1458797 L25.8953914,21.8062361 L24.8163862,22.2037862 L24.9078274,23.9454343 C24.1762985,25.4472903 23.2192148,26.8418708 22.0365764,28.1291759 L22.0365764,28.1291759 L22,28.3942094 L26.3343087,28.6024499 L26.4806145,28.6213808 L27.9619605,28.9242762 L28.1448427,28.545657 L27.8339429,27.9777283 L29.1324067,25.2138085 C29.2543282,24.0274684 31.1075347,23.4784707 34.6920263,23.5668151 L34.6920263,23.5668151 L34.7286028,23.0556793 L34.6005852,23.0178174 C33.9056328,21.8945805 33.2411607,21.2951002 32.607169,21.2193764 L32.607169,21.2193764 L32.4974396,21.2004454 L30.3211412,21.2193764 L30.9063643,17.9821826 L31.0526701,16.5434298 L31.3087052,16.5623608 C31.2843209,16.7895323 31.6074128,17.357461 32.277981,18.266147 C33.3874665,20.7145509 34.7773714,22.9420935 36.4476957,24.9487751 C38.8495489,27.1700074 41.0197513,28.5204157 42.9583029,29 Z M46.4276416,27.9931803 C47.5398953,28.0932028 48.7418469,27.0929778 50.0334963,24.9925054 C50.9543945,22.7670049 51.5523804,20.1851742 51.8274539,17.2470134 C52.1025274,14.3088526 52.0487087,12.6084702 51.6659977,12.1458661 L51.6659977,12.1458661 L50.6613815,12.0333408 C49.0109405,11.8833071 47.9943646,12.2396372 47.6116536,13.1023313 L47.6116536,13.1023313 L47.593714,13.3648903 C48.2634582,15.5278768 48.5205921,17.472064 48.3651158,19.1974521 L48.3651158,19.1974521 L48.1319013,21.860551 C47.6535126,23.4359053 47.1751239,24.4611359 46.6967353,24.9362428 L46.6967353,24.9362428 L46.3379437,24.7674548 C45.1300123,22.9545471 44.5978049,21.2041534 44.7413215,19.5162738 L44.7413215,19.5162738 L45.0104151,16.5906158 L44.8848381,16.4593363 L42.9294244,16.9281917 C41.7334527,16.8156664 41.1055675,17.071974 41.0457689,17.6971146 L41.0457689,17.6971146 L41.0278293,17.9596737 C40.8962725,19.4850168 41.2311445,21.5229751 42.0324456,24.0735487 C43.156659,26.5115971 44.2390134,27.7806325 45.2795088,27.880655 L45.2795088,27.880655 L46.4276416,27.9931803 Z M70.9807976,29 L70.9807976,28.8903654 L71.1285081,28.7624585 L71.3500739,26.8621262 L71.2762186,26.2043189 L71.4239291,26.1129568 L71.3870015,25.345515 L71.3870015,25.1993355 L71.534712,25.089701 L71.4423929,24.7059801 C72.217873,20.0404208 72.870261,16.8610188 73.3995569,15.1677741 L73.3995569,15.1677741 L74.1750369,12.8289037 C75.3567208,9.83222591 76.2922206,7.92580288 76.9815362,7.10963455 L76.9815362,7.10963455 L77,7 L75.5413589,7.09136213 C73.6580502,6.98172757 72.6917774,7.2192691 72.6425406,7.80398671 C69.7991137,12.5548173 68.14968,16.982835 67.6942393,21.0880399 L67.6942393,21.0880399 L67.528065,21.4717608 L67.6573117,21.4900332 L67.4726736,21.9651163 L67.528065,22.6229236 L67.5096012,22.7508306 L67.3803545,22.8604651 L67.4357459,23.627907 L67.4172821,23.7740864 L67.2880355,23.755814 L65.4601182,21.3803987 C63.1706056,18.4933555 60.0379124,16.0265781 56.0620384,13.9800664 C56.03742,14.1506091 54.6834072,14.2663344 52,14.3272425 L52,14.3272425 L53.9017725,17.0863787 C55.0957656,19.717608 55.6189069,21.6483942 55.4711965,22.8787375 L55.4711965,22.8787375 L55.3419498,22.9883721 L55.415805,23.372093 C55.6866076,23.9080842 56.5851797,24.772979 58.1115214,25.9667774 L58.1115214,25.9667774 L58.2407681,25.9850498 C59.0039389,24.4745293 59.4655342,23.0310078 59.6255539,21.654485 L59.6255539,21.654485 L59.6624815,21.2707641 C59.6747907,21.1245847 59.2378139,20.7774086 58.351551,20.2292359 L58.351551,20.2292359 L58.3700148,20.1013289 L58.4992614,20.1196013 C61.0595766,21.4230343 63.4414082,24.0664452 65.6447563,28.0498339 L65.6447563,28.0498339 L67.2141802,27.9584718 L67.1957164,28.1046512 L67.3434269,27.9767442 L68.4697194,28.2142857 L68.598966,28.2508306 L68.7466765,28.1229236 C69.8175775,28.4152824 70.5622846,28.7076412 70.9807976,29 L70.9807976,29 Z M87,14 L89,13.5555556 C86.7090909,12.5185185 85.1333333,12 84.2727273,12 L84.2727273,12 L83,12 L83,12.2222222 C83,12.637037 84.3333333,13.2296296 87,14 L87,14 Z M80.0507757,29 C83.400094,29 85.7165021,27.8755399 87,25.6266196 C86.5599436,23.3651355 85.9426422,22.3914409 85.1480959,22.7055359 C83.9623883,24.590106 82.7827927,25.5826463 81.6093089,25.6831567 C80.4358251,25.7836671 79.5832158,25.6360424 79.051481,25.2402827 C78.5197461,24.844523 78.1683122,24.0561445 77.9971791,22.8751472 C77.7038082,20.4503337 79.2501175,18.1762858 82.6361072,16.0530035 L82.6361072,16.0530035 L85.899859,14.8845701 L85.899859,14.6961131 C83.5528914,13.565371 81.9026798,13 80.9492243,13 C76.3164081,15.0604633 74,17.8182175 74,21.2732627 C74,24.6654888 75.3446168,27.046329 78.0338505,28.4157833 L78.0338505,28.4157833 L79.8490832,29 L80.0507757,29 Z M106.810785,35 L106.981079,34.8896905 L107,34.760996 C104.161779,33.0940967 102.168716,31.1085253 101.020814,28.8042821 C99.7089246,25.6298193 99.1412804,22.1305562 99.3178808,18.3064929 C99.3935667,17.9142813 98.371807,17.3075789 96.2526017,16.4863859 C96.025544,16.5476689 94.8839483,16.9398805 92.8278146,17.6630207 L92.8278146,17.6630207 L92.7332072,17.0747033 C92.1403343,14.3169653 91.5916115,12.5397564 91.0870388,11.7430766 C90.658152,9.95361105 90.0463576,9.04049337 89.2516556,9.00372353 C88.2046673,8.95469708 87.4604226,9.38980684 87.0189215,10.3090528 L87.0189215,10.3090528 L87,10.8054457 C87.8703879,12.0556202 88.7155471,14.2005275 89.5354778,17.2401676 L89.5354778,17.2401676 L90.0652791,20.1449849 C90.380637,22.3634319 90.5950804,25.1150415 90.7086093,28.3998138 L90.7086093,28.3998138 L93.2630085,28.4365837 L93.9252602,27.5908774 L93.5846736,22.645334 C93.4963734,21.6525483 93.3828445,20.868125 93.244087,20.2920642 C93.8243456,20.0101621 94.5118259,19.8692111 95.3065279,19.8692111 L95.3065279,19.8692111 L96.1958373,20.6046079 C96.385052,24.9311923 97.0409965,28.0505003 98.1636708,29.962532 C99.7026175,32.8305795 101.342479,34.4239392 103.083254,34.7426111 L103.083254,34.7426111 L105.107852,34.8713056 L105.618732,34.9448452 L106.716178,34.8345357 L106.810785,35 Z M107.617197,29 L109.515881,27.347486 C112.937272,24.8782123 116.828635,23.3523277 121.189969,22.7698324 L121.189969,22.7698324 L121.923125,22.7128492 L122.938263,22.4849162 C123.151317,21.433892 122.812937,20.8007449 121.923125,20.5854749 L121.923125,20.5854749 L119.798854,20.8893855 C114.698098,21.6364991 110.700209,22.8837989 107.805185,24.6312849 C107.466806,23.6562384 107.253752,22.7951583 107.166024,22.0480447 L107.166024,22.0480447 L112.467301,20.4715084 C114.99888,20.0156425 116.308534,19.7180633 116.396262,19.5787709 L116.396262,19.5787709 L116.396262,19.4458101 L115.11794,17.9832402 C114.102801,17.8692737 111.33937,18.6353818 106.827645,20.2815642 L106.827645,20.2815642 L106.564461,20.2435754 L105.699714,18.572067 L105.718512,18.2871508 C110.230237,17.8945996 114.228127,16.6472998 117.712181,14.5452514 L117.712181,14.5452514 L117.73098,14.2793296 L116.396262,12 C115.995219,12.6204842 113.921079,13.5955307 110.173841,14.9251397 C105.887702,16.0648045 103.02401,16.5523277 101.582764,16.3877095 L101.582764,16.3877095 L101.469971,16.2357542 L101.16919,16.4826816 L101.150391,16.596648 L101.16919,17.7932961 L101.150391,17.9452514 L101,18.0402235 L101.187989,18.7430168 L102.522707,18.6100559 C103.249596,20.1042831 103.594242,20.9843575 103.556644,21.2502793 L103.556644,21.2502793 L103.537845,21.5162011 C102.810956,21.7441341 102.441245,21.9214153 102.428713,22.0480447 L102.428713,22.0480447 L102.409914,22.2 L103.500248,23.1117318 C104.139409,23.1750466 104.358729,24.8402235 104.158208,28.1072626 L104.158208,28.1072626 L104.007817,28.2022346 C103.982752,28.4808194 104.051681,28.6264432 104.214604,28.6391061 L104.214604,28.6391061 L107.617197,29 Z M125.670491,25 C127.333971,24.3813683 130.014022,23.9022319 133.710644,23.562591 C142.385383,23.9507521 146.815169,23.3503154 147,21.7612809 C146.70427,21.1183891 146.125133,20.4633673 145.262588,19.7962154 C138.830465,16.5089762 134.271298,13.6523532 131.585086,11.2263464 C129.82303,10.1103833 127.531124,7.74502669 124.709369,4.13027656 L124.709369,4.13027656 L123.507967,2.09243086 C123.273847,0.782387191 122.743998,0.0849102377 121.918419,0 C119.417038,0.012130034 118.11706,0.424551189 118.018483,1.23726346 L118.018483,1.23726346 L118,1.49199418 C119.219885,3.8209607 120.298067,6.23483746 121.234544,8.73362445 C122.121734,11.5841824 122.57765,14.4771955 122.602294,17.4126638 L122.602294,17.4126638 L122.491396,17.3944687 L122.45443,18.6681223 L122.417463,19.1593886 L122.121734,20.5422125 L121.511791,22.6528384 L120.994264,23.8719068 L120.975781,23.9810771 L123.397068,24.2358079 C123.889951,24.296458 124.647759,24.5511887 125.670491,25 Z M127.950521,23 L127.820244,22.9812265 L127.838855,22.8498123 C130.82902,21.5231539 132.634285,20.8848561 133.254651,20.9349186 L133.254651,20.9349186 L133.310484,20.5594493 L130.835223,19.2453066 C129.247086,19.5081352 127.702375,20.1714643 126.201089,21.2352941 L126.201089,21.2352941 L126.256922,20.5782228 C126.59192,17.3491865 126.294144,14.3829787 125.363595,11.6795995 C125.264336,10.6908636 124.476471,9.50813517 123,8.13141427 L123,8.13141427 L123.037222,8 L123.76305,8.46933667 C126.194885,11.1226533 128.701164,13.281602 131.281887,14.9461827 C132.113178,15.3341677 132.522619,15.5969962 132.510212,15.7346683 C138.279616,18.6257822 141.108486,20.6032541 140.99682,21.6670839 C140.500527,22.1301627 139.042667,22.3617021 136.623239,22.3617021 L136.623239,22.3617021 L136.64185,22.2302879 L133.868814,22.4555695 L133.887424,22.3241552 L127.950521,23 Z M133.92228,20 L134.502591,19.9294118 L134.937824,19.9764706 L135,19.4823529 L132.222798,18 L131.041451,18 L131,18.5176471 L133.92228,20 Z M148.917197,22.9465252 C149.656051,23.0861538 151.273885,22.9523431 153.770701,22.5450928 C154.140127,22.4636428 154.458599,22.4403714 154.726115,22.4752785 L154.726115,22.4752785 L160.630573,21.288435 L161.242038,21.2360743 L161.471338,21.1662599 L161.509554,21.0091777 L162.388535,20.9044562 L162.56051,20.7997347 L162.598726,20.7822812 L162.598726,20.7648276 L163,20.5030239 L162.847134,19.5954377 C162.707006,19.3627233 162.541401,19.1940053 162.350318,19.0892838 C162.082803,18.8914766 161.719745,18.7809372 161.261146,18.7576658 C160.292994,18.66458 159.528662,18.5714943 158.968153,18.4784085 C157.910828,18.3620513 156.286624,18.0886118 154.095541,17.6580902 L154.095541,17.6580902 L154,17.6406366 C151.898089,17.082122 150.082803,16.5352431 148.55414,16 L148.55414,16 L148.458599,18.6878515 C149.095541,19.0485588 150.66242,19.4267197 153.159236,19.8223342 C153.541401,19.8572414 153.853503,19.9328736 154.095541,20.0492308 L154.095541,20.0492308 L154.66879,20.1190451 C154.401274,20.1539523 154.121019,20.1888594 153.828025,20.2237666 L153.828025,20.2237666 L153.732484,20.2412202 C151.55414,20.3692131 149.643312,20.4215738 148,20.3983024 L148,20.3983024 L148.917197,22.9465252 Z" id="&lt;launched&gt;" fill="#FF0000" fill-rule="nonzero"></path>
    </g>
</svg>