<svg width="158" height="16" viewBox="0 0 158 16" fill="none" xmlns="http://www.w3.org/2000/svg">
<path d="M0 16V0H3.91238V12.5H14.2451V16H0Z" fill="#404040"/>
<path d="M33.3054 12.2C33.3054 14.4 31.7004 16 29.4934 16H20.0635C17.8565 16 16.2515 14.5 16.2515 12.2V3.8C16.2515 1.5 17.7562 0 20.0635 0H29.5937C31.8007 0 33.4057 1.5 33.4057 3.8V12.2H33.3054ZM20.8661 3.5C20.3645 3.5 20.2642 3.6 20.2642 4.1V12C20.2642 12.4 20.3645 12.6 20.8661 12.6H28.9918C29.4934 12.6 29.5937 12.5 29.5937 12V4.1C29.5937 3.6 29.4934 3.5 28.9918 3.5H20.8661Z" fill="#404040"/>
<path d="M54.4724 12.2C54.4724 14.4 52.8673 16 50.6603 16H41.1302C38.9232 16 37.3181 14.5 37.3181 12.2V3.8C37.3181 1.5 38.8229 0 41.1302 0H50.6603C52.8673 0 54.4724 1.5 54.4724 3.8V12.2ZM41.9327 3.5C41.4311 3.5 41.3308 3.6 41.3308 4.1V12C41.3308 12.4 41.4311 12.6 41.9327 12.6H50.0584C50.56 12.6 50.6603 12.5 50.6603 12V4.1C50.6603 3.6 50.56 3.5 50.0584 3.5H41.9327Z" fill="#404040"/>
<path d="M70.8242 16L62.5982 8.6V16H58.6858V0H62.5982V6.8L70.122 0H75.1379L66.9118 7.4L76.5423 16H70.8242Z" fill="#404040"/>
<path d="M85.6711 16V0H89.5835V12.5H99.9162V16H85.6711Z" fill="#404040"/>
<path d="M116.368 16L114.964 13.2H106.236L104.832 16H100.618L108.945 0H112.456L120.682 16H116.368ZM110.65 4L107.741 9.9H113.559L110.65 4Z" fill="#404040"/>
<path d="M138.538 12.4C138.538 14.5 137.636 16 134.927 16H122.588V0H134.425C137.234 0 138.338 1.6 138.338 3.5V5.2C138.338 6.4 137.836 6.9 137.335 7.3C137.034 7.5 136.733 7.6 136.432 7.7C136.833 7.8 137.134 7.9 137.535 8.1C138.137 8.5 138.639 9.1 138.639 10.3V12.4H138.538ZM134.425 4.4C134.425 3.7 134.225 3.4 133.523 3.4H126.601V6.3H133.523C134.225 6.3 134.425 6 134.425 5.4V4.4ZM134.626 10.3C134.626 9.6 134.425 9.3 133.723 9.3H126.601V12.6H133.723C134.425 12.6 134.626 12.3 134.626 11.7V10.3Z" fill="#404040"/>
<path d="M158 12.2C158 14.5 157.097 16 154.188 16H145.46C142.852 16 141.749 14.6 141.749 12.4V11.7L145.661 11.1V12.6H153.486C153.987 12.6 153.987 12.4 153.987 12V10.3C153.987 9.9 153.887 9.7 153.385 9.7H145.761C143.053 9.7 142.049 8.2 142.049 6.2V3.8C142.049 0.9 143.354 0 145.862 0H154.088C157.097 0 158 1.4 158 3.6V4.2L154.088 4.8V3.5H146.664C146.263 3.5 146.062 3.6 146.062 4.1V5.8C146.062 6.2 146.162 6.3 146.664 6.3H154.288C156.997 6.3 158 7.8 158 9.9V12.2Z" fill="#404040"/>
</svg>
