<?xml version="1.0" encoding="UTF-8"?>
<svg width="121px" height="121px" viewBox="0 0 121 121" version="1.1" xmlns="http://www.w3.org/2000/svg" xmlns:xlink="http://www.w3.org/1999/xlink">
    <title>os</title>
    <g id="Page-1" stroke="none" stroke-width="1" fill="none" fill-rule="evenodd">
        <g id="os" transform="translate(4.000000, 4.000000)">
            <rect id="Rectangle" fill="#000000" x="42" y="14" width="30" height="6"></rect>
            <rect id="Rectangle" stroke="#000000" stroke-width="7" x="0" y="0" width="113" height="113"></rect>
            <path d="M29.6679,60.6801 L29.8836,60.341 L42.8906,39.9932 C43.0807,39.6953 43.5276,39.7261 43.6714,40.0497 C45.8444,44.9196 47.7194,50.9762 46.841,54.7468 C46.466,56.2982 45.4386,58.3992 44.2827,60.341 C44.1338,60.6236 43.9694,60.901 43.7947,61.1681 C43.7125,61.2914 43.5738,61.3633 43.4248,61.3633 L30.048,61.3633 C29.6884,61.3633 29.4778,60.9729 29.6679,60.6801 Z" id="Path" fill="#000000" fill-rule="nonzero"></path>
            <path d="M87.6444,64.461 L87.6444,67.6819 C87.6444,67.8668 87.5314,68.0312 87.367,68.1031 C86.3602,68.5346 82.9132,70.1168 81.48,72.11 C77.8224,77.2008 75.0279,84.48 68.7812,84.48 L42.721,84.48 C33.4847,84.48 26,76.9697 26,67.7024 L26,67.4045 C26,67.1579 26.2003,66.9576 26.4469,66.9576 L40.9745,66.9576 C41.2621,66.9576 41.4727,67.2247 41.4471,67.5072 C41.3443,68.4524 41.519,69.4182 41.9659,70.2966 C42.8289,72.0484 44.6166,73.1426 46.5481,73.1426 L53.74,73.1426 L53.74,67.5278 L46.6303,67.5278 C46.2656,67.5278 46.0499,67.1065 46.2605,66.8086 C46.3375,66.6904 46.4249,66.5672 46.5173,66.4285 C47.1903,65.473 48.1509,63.9884 49.1064,62.2983 C49.7588,61.1579 50.3906,59.9404 50.8992,58.7178 C51.002,58.4969 51.0841,58.2708 51.1663,58.0499 C51.305,57.6595 51.4489,57.2948 51.5516,56.9301 C51.6544,56.6218 51.7365,56.2982 51.8187,55.9951 C52.0602,54.9574 52.1629,53.8581 52.1629,52.7177 C52.1629,52.2708 52.1424,51.8033 52.1013,51.3564 C52.0807,50.8684 52.0191,50.3803 51.9574,49.8923 C51.9163,49.4608 51.8393,49.0344 51.7571,48.5875 C51.6544,47.9351 51.5105,47.2879 51.3461,46.6354 L51.2896,46.3889 C51.1663,45.9419 51.0636,45.5156 50.9198,45.0687 C50.5139,43.6662 50.0465,42.2998 49.5533,41.0207 C49.3735,40.5121 49.168,40.0241 48.9625,39.5361 C48.6595,38.8015 48.3512,38.1337 48.0687,37.5018 C47.9249,37.2141 47.8016,36.9521 47.6783,36.685 C47.5396,36.3819 47.3958,36.0788 47.2519,35.7912 C47.1492,35.5703 47.031,35.3648 46.9488,35.1593 L46.0704,33.536 C45.9471,33.3151 46.1526,33.0531 46.394,33.1199 L51.8907,34.6096 L51.9061,34.6096 C51.9163,34.6096 51.9215,34.6148 51.9266,34.6148 L52.6509,34.8151 L53.4472,35.0412 L53.74,35.1233 L53.74,31.8562 C53.74,30.2791 55.0037,29 56.5654,29 C57.3462,29 58.0551,29.3185 58.5637,29.8373 C59.0722,30.3562 59.3907,31.0651 59.3907,31.8562 L59.3907,36.7056 L59.9764,36.8699 C60.0226,36.8854 60.0688,36.9059 60.1099,36.9367 C60.2538,37.0446 60.4592,37.2038 60.7212,37.3991 C60.9267,37.5634 61.1476,37.7638 61.4147,37.9693 C61.9438,38.3956 62.5757,38.9453 63.2692,39.5772 C63.4541,39.7364 63.6339,39.9008 63.7983,40.0652 C64.6922,40.8974 65.6939,41.8734 66.6494,42.9522 C66.9165,43.2553 67.1785,43.5635 67.4456,43.8871 C67.7127,44.2159 67.9953,44.5395 68.2418,44.8632 C68.5655,45.2947 68.9148,45.7416 69.2179,46.2091 C69.3617,46.43 69.5261,46.656 69.6648,46.8769 C70.0552,47.4676 70.3994,48.079 70.7282,48.6903 C70.8669,48.9728 71.0107,49.281 71.134,49.5841 C71.4987,50.4009 71.7864,51.2331 71.9713,52.0653 C72.0278,52.2451 72.0689,52.4403 72.0895,52.615 L72.0895,52.6561 C72.1511,52.9026 72.1717,53.1646 72.1922,53.4317 C72.2744,54.2845 72.2333,55.1372 72.0484,55.9951 C71.9713,56.3599 71.8686,56.704 71.7453,57.0688 C71.622,57.4181 71.4987,57.7828 71.3395,58.127 C71.0313,58.841 70.6665,59.5551 70.235,60.2229 C70.0963,60.4695 69.9319,60.7315 69.7675,60.9781 C69.5877,61.24 69.4028,61.4866 69.2384,61.7281 C69.0124,62.0363 68.771,62.3599 68.5244,62.6476 C68.3035,62.9507 68.0775,63.2538 67.8309,63.5209 C67.4867,63.9267 67.1579,64.312 66.8137,64.6819 C66.6083,64.9233 66.3874,65.1699 66.1613,65.3908 C65.9405,65.6373 65.7144,65.8582 65.5089,66.0637 C65.1648,66.4079 64.8771,66.675 64.6356,66.8959 L64.0706,67.4148 C63.9884,67.4867 63.8805,67.5278 63.7675,67.5278 L59.3907,67.5278 L59.3907,73.1426 L64.8976,73.1426 C66.1305,73.1426 67.3018,72.7059 68.247,71.9045 C68.5706,71.622 69.9833,70.3994 71.6528,68.5552 C71.7093,68.4935 71.7813,68.4473 71.8635,68.4268 L87.0742,64.0295 C87.3568,63.9473 87.6444,64.163 87.6444,64.461 Z" id="Path" fill="#000000" fill-rule="nonzero"></path>
        </g>
    </g>
</svg>