<?xml version="1.0" encoding="UTF-8"?>
<svg fill="#b7b7b7" width="100pt" height="100pt" version="1.1" viewBox="0 0 100 100" xmlns="http://www.w3.org/2000/svg">
 <g>
  <path d="m59.695 11.281c-0.53516-0.13281-1.0781 0.19531-1.2109 0.73047-0.13281 0.53516 0.19531 1.0781 0.73047 1.2109 16.953 4.1797 28.789 19.301 28.789 36.777 0 17.184-11.449 32.086-27.949 36.547l0.78906-1.3438c0.27734-0.47656 0.11719-1.0898-0.35547-1.3672-0.47656-0.27734-1.0898-0.12109-1.3672 0.35547l-1.9531 3.3359c-0.27734 0.47656-0.11719 1.0898 0.35547 1.3672l3.3359 1.9531c0.16016 0.09375 0.33203 0.13672 0.50391 0.13672 0.34375 0 0.67969-0.17578 0.86328-0.49219 0.27734-0.47656 0.11719-1.0898-0.35547-1.3672l-1.1602-0.67969c17.301-4.7461 29.293-20.398 29.293-38.445 0-18.398-12.461-34.32-30.309-38.719z"/>
  <path d="m10.246 50c0 18.418 12.48 34.344 30.352 38.727 0.078125 0.019532 0.16016 0.027344 0.23828 0.027344 0.44922 0 0.85937-0.30469 0.96875-0.76172 0.13281-0.53516-0.19531-1.0781-0.73438-1.2109-16.973-4.1641-28.824-19.289-28.824-36.781 0-17.164 11.414-32.043 27.879-36.527l-0.60938 1.2695c-0.23828 0.49609-0.03125 1.0938 0.46875 1.3359 0.14062 0.066406 0.28906 0.097656 0.43359 0.097656 0.37109 0 0.73047-0.20703 0.90234-0.56641l1.6758-3.4805c0.23828-0.49609 0.03125-1.0938-0.46875-1.3359l-3.4805-1.6758c-0.49609-0.23828-1.0977-0.03125-1.3359 0.46875-0.23828 0.49609-0.03125 1.0938 0.46875 1.3359l1.3438 0.64844c-17.297 4.7422-29.277 20.387-29.277 38.43z"/>
 </g>
</svg>
