<svg width="12" height="12" viewBox="0 0 12 12" fill="none" xmlns="http://www.w3.org/2000/svg">
<path d="M0.770508 2.84473L9.39062 11.4717C9.53646 11.613 9.70736 11.7064 9.90332 11.752C10.0993 11.7975 10.2952 11.7952 10.4912 11.7451C10.6917 11.695 10.8649 11.597 11.0107 11.4512C11.1566 11.3008 11.2546 11.1276 11.3047 10.9316C11.3594 10.7357 11.3617 10.5397 11.3115 10.3438C11.266 10.1478 11.1725 9.97917 11.0312 9.83789L2.4043 1.21094C2.26758 1.07422 2.10124 0.983073 1.90527 0.9375C1.70931 0.88737 1.51107 0.88737 1.31055 0.9375C1.11003 0.983073 0.93457 1.07878 0.78418 1.22461C0.638346 1.375 0.540365 1.55046 0.490234 1.75098C0.444661 1.9515 0.444661 2.14974 0.490234 2.3457C0.540365 2.54167 0.633789 2.70801 0.770508 2.84473ZM0.770508 9.83789C0.633789 9.97461 0.540365 10.1432 0.490234 10.3438C0.444661 10.5397 0.444661 10.738 0.490234 10.9385C0.540365 11.139 0.638346 11.3122 0.78418 11.458C0.93457 11.6038 1.11003 11.6995 1.31055 11.7451C1.51107 11.7952 1.70931 11.7952 1.90527 11.7451C2.10124 11.6995 2.26758 11.6084 2.4043 11.4717L11.0312 2.85156C11.1725 2.70573 11.266 2.53483 11.3115 2.33887C11.3617 2.1429 11.3594 1.94694 11.3047 1.75098C11.2546 1.55046 11.1566 1.37728 11.0107 1.23145C10.8649 1.08561 10.6917 0.98763 10.4912 0.9375C10.2952 0.88737 10.0993 0.885091 9.90332 0.930664C9.70736 0.976237 9.53646 1.06966 9.39062 1.21094L0.770508 9.83789Z" fill="white"/>
</svg>
