<?xml version="1.0" encoding="UTF-8"?>
<svg width="84px" height="84px" viewBox="0 0 84 84" version="1.1" xmlns="http://www.w3.org/2000/svg" xmlns:xlink="http://www.w3.org/1999/xlink">
    <title>ring</title>
    <g id="Page-1" stroke="none" stroke-width="1" fill="none" fill-rule="evenodd" stroke-linejoin="bevel">
        <g id="ring" transform="translate(1.000000, 0.000000)" fill-rule="nonzero" stroke="#FFFFFF" stroke-width="0.1">
            <path d="M39.83,83.0000003 C39.6487848,83.0000808 39.4752652,82.9267529 39.3490248,82.7967441 C39.2227843,82.6667352 39.1545906,82.4911344 39.16,82.31 L39.16,82.31 C39.1625232,82.1287246 39.2383997,81.9562095 39.3703065,81.8318402 C39.5022133,81.7074709 39.6788897,81.6418648 39.86,81.65 L39.86,81.65 C40.0412152,81.6499192 40.2147348,81.7232471 40.3409752,81.8532559 C40.4672157,81.9832648 40.5354094,82.1588656 40.53,82.34 L40.53,82.34 C40.51918,82.7077207 40.2178798,83.0001592 39.85,83.0000003 L39.85,83.0000003 L39.83,83.0000003 Z" id="Shape-path"></path>
            <path d="M43.47,82.27 C43.4409543,81.9012621 43.7119684,81.5769337 44.08,81.54 L44.08,81.54 C44.452519,81.5163103 44.7780929,81.7890884 44.82,82.16 L44.82,82.16 C44.8381691,82.5342637 44.562368,82.8582205 44.19,82.9 L44.14,82.9 C43.7897913,82.9075742 43.4911288,82.6478677 43.45,82.3 L43.47,82.27 Z" id="Shape-path"></path>
            <path d="M35.47,82.65 L35.47,82.65 C35.0996991,82.5933342 34.8422562,82.2515565 34.89,81.88 L34.89,81.88 C34.9147784,81.7007843 35.0099536,81.5388312 35.1544646,81.4299788 C35.2989755,81.3211264 35.4809069,81.2743498 35.66,81.3 L35.66,81.3 C36.0288447,81.3517407 36.2874297,81.6905762 36.24,82.06 L36.24,82.06 C36.1997041,82.4002251 35.9125928,82.6573397 35.57,82.66 L35.47,82.66 L35.47,82.65 Z" id="Shape-path"></path>
            <path d="M47.74,81.78 C47.7079916,81.602283 47.7479846,81.4191324 47.8511604,81.2709345 C47.9543362,81.1227365 48.112221,81.0216625 48.29,80.99 L48.29,80.99 C48.465119,80.9547768 48.6470531,80.9909402 48.7953896,81.090457 C48.9437261,81.1899739 49.0461824,81.3446042 49.08,81.52 L49.08,81.52 C49.1151709,81.6977678 49.0779317,81.8822209 48.9765475,82.0324196 C48.8751634,82.1826183 48.7180216,82.2861371 48.54,82.32 L48.41,82.32 C48.0926908,82.3242359 47.8146394,82.1084348 47.74,81.8 L47.74,81.78 Z" id="Shape-path"></path>
            <path d="M31.17,81.78 C30.8058027,81.6912092 30.5821547,81.3244265 30.67,80.96 L30.67,80.96 C30.7587908,80.5958027 31.1255735,80.3721547 31.49,80.46 L31.49,80.46 C31.8541973,80.5487908 32.0778453,80.9155735 31.99,81.28 L31.99,81.28 C31.9162161,81.5847789 31.6435826,81.799581 31.33,81.8 L31.33,81.8 C31.2811001,81.8302637 31.2267418,81.8506481 31.17,81.86 L31.17,81.78 Z" id="Shape-path"></path>
            <path d="M51.94,80.78 C51.8774174,80.4416765 52.0736418,80.1089481 52.4,80 L52.4,80 C52.761338,79.8961545 53.1393048,80.1007013 53.25,80.46 L53.25,80.46 C53.3538455,80.821338 53.1492987,81.1993048 52.79,81.31 L52.6,81.31 C52.3083829,81.3201298 52.0428099,81.1430811 51.94,80.87 L51.94,80.78 Z" id="Shape-path"></path>
            <path d="M26.94,80.5 L26.94,80.5 C26.7702492,80.4390165 26.631682,80.3130888 26.5547895,80.1499268 C26.4778971,79.9867647 26.4689798,79.7997376 26.53,79.63 L26.53,79.63 C26.5909835,79.4602492 26.7169112,79.321682 26.8800732,79.2447895 C27.0432353,79.1678971 27.2302624,79.1589798 27.4,79.22 L27.4,79.22 C27.568479,79.2769291 27.7074132,79.3985039 27.7861933,79.5579398 C27.8649734,79.7173757 27.8771354,79.9015909 27.82,80.07 L27.82,80.07 L27.82,80.07 C27.7254919,80.341914 27.4678535,80.5230661 27.18,80.52 L27.18,80.52 L27.01,80.52 L26.94,80.5 Z" id="Shape-path"></path>
            <path d="M55.94,79.4 C55.7923302,79.0547411 55.9478701,78.6547812 56.29,78.5 L56.29,78.5 C56.4570458,78.4306161 56.6448519,78.4306459 56.8118757,78.5000828 C56.9788995,78.5695196 57.1113755,78.7026408 57.18,78.87 L57.18,78.87 C57.3256757,79.2151833 57.1646931,79.6131681 56.82,79.76 L56.82,79.76 C56.7310928,79.7798347 56.6389072,79.7798347 56.55,79.76 L56.55,79.76 C56.3296042,79.7708901 56.1187351,79.6692211 55.99,79.49 L55.94,79.4 Z" id="Shape-path"></path>
            <path d="M23,78.88 L23,78.88 C22.8363218,78.8024703 22.7110031,78.6619794 22.6526015,78.4905423 C22.5941999,78.3191053 22.6076908,78.1313276 22.69,77.97 L22.69,77.97 C22.8560048,77.6338014 23.2601056,77.4917 23.6,77.65 L23.6,77.65 C23.7635032,77.7278095 23.8892206,77.8676171 23.9492891,78.0384368 C24.0093576,78.2092566 23.9988157,78.3969795 23.92,78.56 L23.92,78.56 C23.8056789,78.7925466 23.5691278,78.9399063 23.31,78.94 L23.31,78.94 C23.2032488,78.9466392 23.0965648,78.9259907 23,78.88 Z" id="Shape-path"></path>
            <path d="M60,77.67 C59.8193314,77.3494779 59.9309371,76.9432332 60.25,76.76 L60.25,76.76 C60.4076342,76.6703817 60.5945329,76.6474338 60.7691651,76.6962557 C60.9437973,76.7450776 61.0916973,76.8616251 61.18,77.02 L61.18,77.02 C61.3591839,77.3517045 61.2389568,77.7658202 60.91,77.95 L60.91,77.95 C60.8135141,78.0085687 60.7028704,78.0396872 60.59,78.04 L60.59,78.04 C60.3107091,78.0721021 60.0404575,77.9290277 59.91,77.68 L60,77.67 Z" id="Shape-path"></path>
            <path d="M19.21,76.74 C19.0572755,76.6433887 18.9492894,76.4899579 18.9098878,76.3135889 C18.8704862,76.1372199 18.9029103,75.9524208 19,75.8 L19,75.8 C19.2045698,75.486715 19.6215551,75.3935587 19.94,75.59 L19.94,75.59 C20.0927245,75.6866113 20.2007106,75.8400421 20.2401122,76.0164111 C20.2795138,76.1927801 20.2470897,76.3775792 20.15,76.53 L20.15,76.53 C20.0266058,76.7314638 19.8062297,76.8530506 19.57,76.85 L19.57,76.85 C19.4155561,76.8589707 19.2620525,76.8205948 19.13,76.74 L19.21,76.74 Z" id="Shape-path"></path>
            <path d="M63.6,75.46 C63.4800641,75.3127502 63.4251054,75.1230886 63.4477327,74.9345279 C63.47036,74.7459673 63.568631,74.5746932 63.72,74.46 L63.72,74.46 L63.72,74.46 C63.8622716,74.3322016 64.0517818,74.2702201 64.2420751,74.2892495 C64.4323684,74.3082788 64.6058523,74.4065596 64.72,74.56 L64.72,74.62 L64.72,74.62 C64.8467273,74.7635869 64.9070313,74.9539559 64.8860913,75.14432 C64.8651512,75.3346842 64.7649086,75.5073931 64.61,75.62 L64.55,75.62 L64.55,75.62 C64.4389575,75.7071529 64.3011257,75.7530968 64.16,75.75 L64.16,75.75 C63.9386752,75.7445711 63.7321533,75.6376222 63.6,75.46 Z" id="Shape-path"></path>
            <path d="M15.6,74.22 L15.6,74.22 C15.4390676,74.1137351 15.3308251,73.9441346 15.3022176,73.7534174 C15.27361,73.5627001 15.3273282,73.3688055 15.45,73.22 L15.45,73.22 L15.45,73.22 C15.6690544,72.931583 16.0796085,72.8735699 16.37,73.09 L16.37,73.09 L16.37,73.09 C16.5177558,73.1892792 16.619143,73.3440342 16.6511523,73.5191442 C16.6831617,73.6942542 16.6430787,73.8748694 16.54,74.02 C16.5292358,74.0470315 16.5120792,74.0710507 16.49,74.09 L16.49,74.09 C16.3580798,74.2532378 16.1598756,74.3486695 15.95,74.35 L15.95,74.35 C15.7835878,74.357161 15.6202022,74.3038831 15.49,74.2 L15.6,74.22 Z" id="Shape-path"></path>
            <path d="M67,72.86 C66.8603251,72.7312564 66.7808687,72.5499579 66.7808687,72.36 C66.7808687,72.1700421 66.8603251,71.9887436 67,71.86 L67.06,71.86 L67.06,71.86 C67.1887436,71.7203251 67.3700421,71.6408687 67.56,71.6408687 C67.7499579,71.6408687 67.9312564,71.7203251 68.06,71.86 L68.06,71.86 L68.06,71.86 C68.1996749,71.9887436 68.2791313,72.1700421 68.2791313,72.36 C68.2791313,72.5499579 68.1996749,72.7312564 68.06,72.86 L68.06,72.86 L68.06,72.86 C67.935723,72.969602 67.7757026,73.0300542 67.61,73.03 L67.61,73.03 C67.3910783,73.0772443 67.1629313,73.0136623 67,72.86 Z" id="Shape-path"></path>
            <path d="M12.27,71.32 L12.27,71.32 C12.1367501,71.2010387 12.0565203,71.0337934 12.0471319,70.8554141 C12.0377435,70.6770348 12.0999739,70.5022916 12.22,70.37 L12.27,70.32 L12.27,70.32 C12.3987436,70.1803251 12.5800421,70.1008687 12.77,70.1008687 C12.9599579,70.1008687 13.1412564,70.1803251 13.27,70.32 L13.27,70.32 L13.27,70.32 C13.4096749,70.4487436 13.4891313,70.6300421 13.4891313,70.82 C13.4891313,71.0099579 13.4096749,71.1912564 13.27,71.32 L13.27,71.32 L13.27,71.32 C13.141396,71.4528181 12.9648711,71.5284716 12.78,71.53 L12.78,71.53 C12.5881986,71.5339418 12.4034147,71.4578543 12.27,71.32 L12.27,71.32 Z" id="Shape-path"></path>
            <path d="M70.17,69.91 C70.0303251,69.7812564 69.9508687,69.5999579 69.9508687,69.41 C69.9508687,69.2200421 70.0303251,69.0387436 70.17,68.91 L70.17,68.91 L70.17,68.91 C70.2987436,68.7703251 70.4800421,68.6908687 70.67,68.6908687 C70.8599579,68.6908687 71.0412564,68.7703251 71.17,68.91 L71.17,68.91 L71.17,68.91 C71.3096749,69.0387436 71.3891313,69.2200421 71.3891313,69.41 C71.3891313,69.5999579 71.3096749,69.7812564 71.17,69.91 L71.17,69.91 L71.17,69.91 C71.0414094,70.0499961 70.8600905,70.1297764 70.67,70.13 L70.67,70.13 C70.4799095,70.1297764 70.2985906,70.0499961 70.17,69.91 L70.17,69.91 Z" id="Shape-path"></path>
            <path d="M9.32,68.1 C9.1830356,67.9697469 9.1054997,67.7890108 9.1054997,67.6 C9.1054997,67.4109892 9.1830356,67.2302531 9.32,67.1 L9.37,67.1 L9.37,67.1 C9.5002531,66.9630356 9.6809892,66.8854997 9.87,66.8854997 C10.0590108,66.8854997 10.2397469,66.9630356 10.37,67.1 L10.37,67.1 L10.37,67.1 C10.5069644,67.2302531 10.5845003,67.4109892 10.5845003,67.6 C10.5845003,67.7890108 10.5069644,67.9697469 10.37,68.1 L10.32,68.1 L10.32,68.1 C10.1982996,68.2061368 10.0414494,68.2631732 9.88,68.26 L9.88,68.26 C9.6787024,68.2948301 9.4725122,68.2359186 9.32,68.1 L9.32,68.1 Z" id="Shape-path"></path>
            <path d="M73,66.65 C72.838499,66.5449522 72.7282719,66.3771672 72.695983,66.1872329 C72.6636942,65.9972986 72.7122846,65.8025146 72.83,65.65 L72.83,65.65 L72.83,65.65 C72.9276922,65.5006399 73.0817084,65.3972106 73.2569285,65.3632971 C73.4321485,65.3293835 73.6136337,65.3678771 73.76,65.47 L73.83,65.47 L73.83,65.47 C73.980977,65.5660837 74.0864641,65.7193576 74.1222856,65.8946943 C74.158107,66.0700311 74.1211918,66.2523979 74.02,66.4 L74.02,66.47 L74.02,66.47 C73.8888691,66.6409255 73.6854303,66.7407955 73.47,66.74 L73.47,66.74 C73.307596,66.768879 73.1402463,66.7368334 73,66.65 Z" id="Shape-path"></path>
            <path d="M6.72,64.58 C6.61787706,64.4336337 6.57938352,64.2521485 6.61329707,64.0769285 C6.64721063,63.9017084 6.75063994,63.7476922 6.9,63.65 L6.9,63.65 C7.2122546,63.4439894 7.6322705,63.5288862 7.84,63.84 L7.84,63.84 C7.9606601,63.9886848 8.014108,64.1808239 7.9875592,64.3704583 C7.9610104,64.5600927 7.8568526,64.730167 7.7,64.84 L7.65,64.84 L7.65,64.84 C7.5394137,64.9106193 7.4112053,64.9487353 7.28,64.95 L7.28,64.95 C7.04123,64.9338026 6.82855244,64.7932835 6.72,64.58 L6.72,64.58 Z" id="Shape-path"></path>
            <path d="M75.42,63.11 C75.0960468,62.9152859 74.9890413,62.4961809 75.18,62.17 L75.18,62.17 C75.3747141,61.8460468 75.7938191,61.7390413 76.12,61.93 L76.12,61.93 C76.4439532,62.1247141 76.5509587,62.5438191 76.36,62.87 L76.36,62.87 C76.2316802,63.0725763 76.0097753,63.1966926 75.77,63.2 L75.77,63.2 C75.6476342,63.1998085 75.5272796,63.1688602 75.42,63.11 L75.42,63.11 Z" id="Shape-path"></path>
            <path d="M4.5,60.81 C4.330644,60.475477 4.45942335,60.0669356 4.79,59.89 L4.79,59.89 C5.12452304,59.720644 5.53306443,59.8494234 5.71,60.18 L5.71,60.18 C5.879356,60.514523 5.75057665,60.9230644 5.42,61.1 L5.42,61.1 C5.32450642,61.1509589 5.21822766,61.1783857 5.11,61.18 L5.11,61.18 C4.85309813,61.1818 4.6171136,61.0386618 4.5,60.81 L4.5,60.81 Z" id="Shape-path"></path>
            <path d="M77.5,59.32 C77.1604887,59.1735047 77.0038451,58.7796579 77.15,58.44 L77.15,58.44 L77.15,58.44 C77.3084972,58.1017207 77.707425,57.9510146 78.05,58.1 L78.05,58.1 C78.3882793,58.2584972 78.5389854,58.657425 78.39,59 L78.39,59 C78.2799247,59.2436113 78.0373257,59.4001268 77.77,59.4 L77.77,59.4 C77.6662459,59.4105355 77.5617209,59.3896305 77.47,59.34 L77.5,59.32 Z" id="Shape-path"></path>
            <path d="M2.73,56.82 L2.73,56.82 C2.66484883,56.6515998 2.66934928,56.4642019 2.74250909,56.2991233 C2.8156689,56.1340448 2.95148037,56.0048415 3.12,55.94 L3.12,55.94 C3.28840015,55.8748488 3.4757981,55.8793493 3.64087665,55.9525091 C3.8059552,56.0256689 3.9351585,56.1614804 4,56.33 L4,56.33 C4.12984331,56.6805486 3.9569164,57.0707426 3.61,57.21 L3.61,57.21 C3.52785891,57.2299353 3.44214109,57.2299353 3.36,57.21 L3.36,57.21 C3.08355103,57.2268426 2.82523254,57.0718515 2.71,56.82 L2.73,56.82 Z" id="Shape-path"></path>
            <path d="M79.13,55.34 C78.9573127,55.2852772 78.8141434,55.1629606 78.7331305,55.0009348 C78.6521175,54.8389089 78.6401658,54.6509835 78.7,54.48 L78.7,54.48 C78.7547228,54.3073127 78.8770394,54.1641434 79.0390652,54.0831305 C79.2010911,54.0021175 79.3890165,53.9901658 79.56,54.05 L79.56,54.05 C79.9163447,54.1690661 80.111932,54.5513504 80,54.91 L80,54.91 C79.9059999,55.1894477 79.644829,55.3782944 79.35,55.38 L79.35,55.38 C79.2706521,55.3944451 79.1893479,55.3944451 79.11,55.38 L79.13,55.34 Z" id="Shape-path"></path>
            <path d="M1.35,52.66 C1.25402991,52.295937 1.46762241,51.9221501 1.83,51.82 L1.83,51.82 C2.19380003,51.7310058 2.56216838,51.9484763 2.66,52.31 L2.66,52.31 C2.75695917,52.6656127 2.55294222,53.0337302 2.2,53.14 L2,53.14 C1.7025102,53.1368614 1.44052886,52.9433982 1.35,52.66 Z" id="Shape-path"></path>
            <path d="M80.35,51.21 C80.17248,51.1763342 80.0160823,51.0723965 79.9162917,50.9217692 C79.8165011,50.7711419 79.7817778,50.5865951 79.82,50.41 L79.82,50.41 C79.8583051,50.233546 79.9652172,50.0795718 80.1171645,49.9820254 C80.2691118,49.884479 80.4536167,49.8513706 80.63,49.89 L80.63,49.89 C80.80752,49.9236658 80.9639177,50.0276035 81.0637083,50.1782308 C81.1634989,50.3288581 81.1982222,50.5134049 81.16,50.69 L81.16,50.69 C81.0934421,51.0063916 80.8133093,51.2321703 80.49,51.23 L80.49,51.23 L80.35,51.21 Z" id="Shape-path"></path>
            <path d="M0.44,48.38 L0.44,48.38 C0.38548033,48.0114542 0.63336873,47.666181 1,47.6 L1,47.6 C1.37182838,47.545934 1.71856435,47.799318 1.78,48.17 L1.78,48.17 C1.84015339,48.5398906 1.58970674,48.888727 1.22,48.95 L1.11,48.95 C0.78026701,48.9415817 0.50114863,48.7041227 0.44,48.38 L0.44,48.38 Z" id="Shape-path"></path>
            <path d="M81.07,47 C80.6977328,46.9631158 80.4251693,46.632465 80.46,46.26 L80.46,46.26 C80.5018633,45.8874514 80.8373484,45.6190633 81.21,45.66 L81.21,45.66 C81.5822672,45.6968842 81.8548307,46.027535 81.82,46.4 L81.82,46.4 C81.7839922,46.7479799 81.489833,47.011858 81.14,47.0100289 L81.07,47.0100289 L81.07,47 Z" id="Shape-path"></path>
            <path d="M1.10521401e-14,44 C-0.01092646,43.8195756 0.0504311,43.6422251 0.17051814,43.5071272 C0.29060517,43.3720293 0.4595389,43.2903021 0.64,43.28 L0.64,43.28 C1.01367558,43.2685452 1.328503,43.5567675 1.35,43.93 L1.35,43.93 C1.3609313,44.1077731 1.30062912,44.2825826 1.18241655,44.4158062 C1.06420399,44.5490299 0.89781091,44.6297024 0.72,44.64 L0.72,44.64 C0.53957563,44.6509265 0.36222515,44.5895689 0.22712723,44.4694819 C0.09202932,44.3493948 0.01030209,44.1804611 1.10521401e-14,44 Z" id="Shape-path"></path>
            <path d="M80.69,42 L80.69,42 C80.687328,41.8222992 80.755367,41.6508171 80.8791452,41.523288 C81.0029234,41.3957589 81.1722986,41.3226325 81.35,41.32 L81.35,41.32 C81.7137888,41.336065 82.0003545,41.6358568 82,42 L82,42 C82.0027248,42.1811688 81.9319575,42.3557171 81.8038373,42.4838373 C81.6757171,42.6119575 81.5011688,42.6827248 81.32,42.68 L81.32,42.68 C80.959373,42.6637683 80.6786957,42.3608151 80.69,42 Z" id="Shape-path"></path>
            <path d="M0.69,40.37 C0.50886556,40.3754094 0.33326476,40.3072157 0.20325594,40.1809752 C0.07324711,40.0547348 -8.076e-05,39.8812152 -2.02936495e-07,39.7 L-2.02936495e-07,39.65 L-2.02936495e-07,39.65 C0.00508771,39.4686489 0.08350172,39.2971133 0.21731627,39.174607 C0.35113082,39.0521007 0.52890539,38.9890975 0.71,39 L0.71,39 C0.8904611,39.0103021 1.05939483,39.0920293 1.17948186,39.2271272 C1.2995689,39.3622251 1.36092646,39.5395756 1.35,39.72 L1.35,39.72 C1.3287963,40.0798479 1.0304715,40.3606242 0.67,40.36 L0.67,40.36 L0.69,40.37 Z" id="Shape-path"></path>
            <path d="M80.52,38.08 C80.4851693,37.707535 80.7577328,37.3768842 81.13,37.34 L81.13,37.34 C81.4971398,37.299028 81.8281694,37.562957 81.87,37.93 L81.87,37.93 L81.87,37.93 C81.8993248,38.3007518 81.6295349,38.628038 81.26,38.67 L81.2,38.67 C80.8421921,38.6780715 80.5359246,38.4149403 80.49,38.06 L80.52,38.08 Z" id="Shape-path"></path>
            <path d="M1.09,36.08 C0.90855352,36.0530798 0.7456789,35.9539961 0.6383496,35.8052414 C0.5310203,35.6564868 0.48834095,35.4706799 0.52,35.29 L0.52,35.29 C0.5861416,34.9188683 0.93790409,34.6695176 1.31,34.73 L1.31,34.73 C1.67970674,34.791273 1.93015339,35.1401094 1.87,35.51 L1.87,35.51 C1.81618084,35.8383209 1.53270231,36.0794892 1.2,36.08 L1.09,36.08 L1.09,36.08 Z" id="Shape-path"></path>
            <path d="M79.89,33.89 L79.89,33.89 C79.8513706,33.7136167 79.884479,33.5291118 79.9820254,33.3771645 C80.0795718,33.2252172 80.233546,33.1183051 80.41,33.08 L80.41,33.08 C80.775974,33.0119483 81.129955,33.2464608 81.21,33.61 L81.21,33.61 C81.2486294,33.7863833 81.215521,33.9708882 81.1179746,34.1228355 C81.0204282,34.2747828 80.866454,34.3816949 80.69,34.42 L80.55,34.42 C80.2216107,34.4387797 79.9268578,34.2198204 79.85,33.9 L79.89,33.89 Z" id="Shape-path"></path>
            <path d="M1.94,31.89 C1.57762241,31.7878499 1.36402991,31.414063 1.46,31.05 L1.46,31.05 C1.50891915,30.8761892 1.62495828,30.7289711 1.78253326,30.6408041 C1.94010824,30.5526372 2.1262794,30.5307614 2.3,30.58 L2.3,30.58 C2.47190728,30.6223715 2.61958205,30.7320355 2.70984364,30.8843519 C2.80010524,31.0366684 2.82538396,31.2188634 2.78,31.39 L2.78,31.39 L2.78,31.39 C2.69852532,31.6868376 2.42780995,31.891925 2.12,31.89 L2.12,31.89 C2.05072845,31.9042817 1.97927155,31.9042817 1.91,31.89 L1.94,31.89 Z" id="Shape-path"></path>
            <path d="M78.81,29.83 C78.6913245,29.473781 78.8838195,29.088791 79.24,28.97 L79.24,28.97 C79.5931679,28.8577859 79.9711609,29.0490059 80.09,29.4 L80.09,29.4 C80.1498342,29.5709835 80.1378825,29.7589089 80.0568695,29.9209348 C79.9758566,30.0829606 79.8326873,30.2052772 79.66,30.26 L79.45,30.26 C79.1449337,30.279757 78.865179,30.0905112 78.77,29.8 L78.81,29.83 Z" id="Shape-path"></path>
            <path d="M3.21,27.76 C3.04219788,27.6972711 2.90650537,27.5699554 2.83322558,27.4064851 C2.7599458,27.2430148 2.7551827,27.0570065 2.82,26.89 L2.82,26.89 C2.96323201,26.5416568 3.35934256,26.372531 3.71,26.51 L3.71,26.51 C3.87780212,26.5727289 4.01349463,26.7000446 4.08677442,26.8635149 C4.1600542,27.0269852 4.1648173,27.2129935 4.1,27.38 L4.1,27.38 C4.00004302,27.6405479 3.74905762,27.8118554 3.47,27.81 L3.47,27.81 C3.38033262,27.8185929 3.29008459,27.8012375 3.21,27.76 L3.21,27.76 Z" id="Shape-path"></path>
            <path d="M77.27,25.86 C77.1210146,25.517425 77.2717207,25.1184972 77.61,24.96 L77.61,24.96 C77.952575,24.8110146 78.3515028,24.9617207 78.51,25.3 L78.51,25.3 C78.6594998,25.6370707 78.5131116,26.0318751 78.18,26.19 L78.18,26.19 C78.0920812,26.2299446 77.9965666,26.250412 77.9,26.25 L77.9,26.25 C77.6313951,26.2558722 77.3845153,26.1030418 77.27,25.86 Z" id="Shape-path"></path>
            <path d="M4.94,23.86 C4.60942335,23.6830644 4.480644,23.274523 4.65,22.94 L4.65,22.94 C4.82673112,22.6086292 5.23862915,22.4832689 5.57,22.66 L5.57,22.66 C5.90057665,22.8369356 6.029356,23.245477 5.86,23.58 L5.86,23.58 C5.73686108,23.8016096 5.50352228,23.9393178 5.25,23.94 L5.25,23.94 C5.13922173,23.9292553 5.03277416,23.8914836 4.94,23.83 L4.94,23.86 Z" id="Shape-path"></path>
            <path d="M75.34,22.13 C75.150766,21.8012175 75.2624365,21.3813364 75.59,21.19 L75.59,21.19 C75.916516,21.0074611 76.3290189,21.118349 76.52,21.44 L76.52,21.44 C76.6116505,21.5924621 76.6389078,21.7751132 76.5957634,21.9476908 C76.552619,22.1202685 76.442615,22.2686043 76.29,22.36 L76.29,22.36 C76.1895925,22.4273885 76.0709032,22.4622971 75.95,22.46 L75.95,22.46 C75.701583,22.4501891 75.4770085,22.3093542 75.36,22.09 L75.34,22.13 Z" id="Shape-path"></path>
            <path d="M7.08,20.13 C6.77232747,19.9190774 6.69201459,19.4996657 6.9,19.19 L6.9,19.19 C7.1040253,18.8815136 7.5171948,18.79266 7.83,18.99 L7.83,18.99 C7.9945826,19.0949652 8.1070037,19.2647314 8.1394043,19.457229 C8.1718049,19.6497266 8.1211528,19.8469407 8,20 L8,20 C7.8724154,20.1893535 7.6583165,20.3020371 7.43,20.3 L7.43,20.3 C7.2898271,20.2872788 7.1570555,20.231375 7.05,20.14 L7.08,20.13 Z" id="Shape-path"></path>
            <path d="M73,18.56 C72.8783123,18.4125969 72.823222,18.22132 72.8478632,18.0317722 C72.8725044,17.8422244 72.9746691,17.6713907 73.13,17.56 L73.13,17.56 L73.13,17.56 C73.2748291,17.4361904 73.4644081,17.37778 73.6538025,17.3986134 C73.843197,17.4194468 74.0155464,17.5176693 74.13,17.67 L74.13,17.67 L74.13,17.67 C74.3531009,17.9711394 74.2904868,18.3960209 73.99,18.62 L73.99,18.62 C73.869219,18.7029715 73.7265235,18.7482164 73.58,18.75 L73.58,18.75 C73.3675064,18.7818588 73.1524568,18.7114115 73,18.56 Z" id="Shape-path"></path>
            <path d="M9.59,16.56 C9.4449469,16.4525934 9.3493632,16.2912064 9.3248927,16.1123831 C9.3004221,15.9335598 9.3491347,15.7524271 9.46,15.61 L9.46,15.56 L9.46,15.56 C9.5674066,15.4149469 9.7287936,15.3193632 9.9076169,15.2948927 C10.0864402,15.2704221 10.2675729,15.3191347 10.41,15.43 L10.46,15.43 L10.46,15.43 C10.6205749,15.5374205 10.7269656,15.708926 10.7518711,15.9005068 C10.7767766,16.0920875 10.7177725,16.2850944 10.59,16.43 L10.59,16.43 L10.59,16.43 C10.463264,16.5875213 10.2721747,16.6793911 10.07,16.68 L10.07,16.68 C9.908444,16.6995575 9.7452311,16.6605283 9.61,16.57 L9.59,16.56 Z" id="Shape-path"></path>
            <path d="M70.33,15.23 C70.2035913,15.1042513 70.1325198,14.9333028 70.1325198,14.755 C70.1325198,14.5766972 70.2035913,14.4057487 70.33,14.28 L70.33,14.23 L70.33,14.23 C70.4602531,14.0930356 70.6409892,14.0154997 70.83,14.0154997 C71.0190108,14.0154997 71.1997469,14.0930356 71.33,14.23 L71.33,14.23 L71.33,14.23 C71.4669644,14.3602531 71.5445003,14.5409892 71.5445003,14.73 C71.5445003,14.9190108 71.4669644,15.0997469 71.33,15.23 L71.33,15.23 L71.33,15.23 C71.2051879,15.3463963 71.0406621,15.4107759 70.87,15.41 L70.87,15.41 C70.686284,15.4373736 70.4992207,15.3906078 70.35,15.28 L70.33,15.23 Z" id="Shape-path"></path>
            <path d="M12.49,13.41 C12.3503251,13.2812564 12.2708687,13.0999579 12.2708687,12.91 C12.2708687,12.7200421 12.3503251,12.5387436 12.49,12.41 L12.49,12.41 L12.49,12.41 C12.6187436,12.2703251 12.8000421,12.1908687 12.99,12.1908687 C13.1799579,12.1908687 13.3612564,12.2703251 13.49,12.41 L13.49,12.41 L13.49,12.41 C13.6296749,12.5387436 13.7091313,12.7200421 13.7091313,12.91 C13.7091313,13.0999579 13.6296749,13.2812564 13.49,13.41 L13.49,13.41 L13.49,13.41 C13.3636806,13.5315477 13.1953006,13.5996162 13.02,13.6 L13.02,13.6 C12.8236471,13.6204368 12.6286474,13.5505312 12.49,13.41 L12.49,13.41 Z" id="Shape-path"></path>
            <path d="M67.33,12.31 C67.1903251,12.1812564 67.1108687,11.9999579 67.1108687,11.81 C67.1108687,11.6200421 67.1903251,11.4387436 67.33,11.31 L67.33,11.31 L67.33,11.31 C67.4441477,11.1565596 67.6176316,11.0582788 67.8079249,11.0392495 C67.9982182,11.0202201 68.1877284,11.0822016 68.33,11.21 L68.33,11.21 L68.33,11.21 C68.4834404,11.3241477 68.5817212,11.4976316 68.6007505,11.6879249 C68.6197799,11.8782182 68.5577984,12.0677284 68.43,12.21 L68.43,12.21 L68.43,12.21 C68.2986439,12.3532364 68.1143139,12.4363656 67.92,12.44 L67.92,12.44 C67.713788,12.4838995 67.4986664,12.4364998 67.33,12.31 L67.33,12.31 Z" id="Shape-path"></path>
            <path d="M15.7,10.54 C15.5676983,10.4030471 15.4988817,10.2168954 15.5102864,10.0268172 C15.5216911,9.8367389 15.6122721,9.6601511 15.76,9.54 L15.76,9.54 L15.76,9.54 C15.896856,9.4058804 16.0845883,9.3367762 16.275739,9.3501568 C16.4668898,9.3635373 16.6431638,9.4581219 16.76,9.61 L16.76,9.66 L16.76,9.66 C16.8941196,9.796856 16.9632238,9.9845883 16.9498432,10.175739 C16.9364627,10.3668898 16.8418781,10.5431638 16.69,10.66 L16.69,10.66 L16.69,10.66 C16.5706952,10.7543752 16.422069,10.8039173 16.27,10.8 L16.27,10.8 C16.0486861,10.8129734 15.8352835,10.7156318 15.7,10.54 L15.7,10.54 Z" id="Shape-path"></path>
            <path d="M64,9.67 L64,9.67 C63.8369229,9.5665869 63.7246419,9.3995699 63.6904333,9.209522 C63.6562247,9.0194741 63.703219,8.8237876 63.82,8.67 L63.82,8.67 L63.82,8.67 C63.9246314,8.5075255 64.0934507,8.397244 64.284274,8.3667123 C64.4750972,8.3361805 64.669898,8.3882829 64.82,8.51 L64.82,8.51 C65.1255336,8.7277765 65.2010504,9.1497822 64.99,9.46 L64.99,9.46 C64.8599153,9.6400387 64.6521046,9.7476549 64.43,9.75 L64.43,9.75 C64.2817288,9.7738056 64.1297887,9.7455377 64,9.67 L64,9.67 Z" id="Shape-path"></path>
            <path d="M19.18,8 C18.9872647,7.67640849 19.0896303,7.25804454 19.41,7.06 L19.41,7.06 C19.7310132,6.8654369 20.1486707,6.96318654 20.35,7.28 L20.35,7.28 C20.4461911,7.43363645 20.4770604,7.61931927 20.435753,7.79581453 C20.3944456,7.97230979 20.2843807,8.125008 20.13,8.22 L20.13,8.22 C20.0259667,8.2876018 19.9040443,8.3224367 19.78,8.32 L19.78,8.32 C19.5376752,8.3261307 19.3099063,8.204654 19.18,8 Z" id="Shape-path"></path>
            <path d="M60.46,7.38 C60.3016251,7.29169725 60.1850776,7.14379727 60.1362557,6.96916507 C60.0874338,6.79453286 60.1103817,6.60763419 60.2,6.45 L60.2,6.45 C60.3837105,6.12600313 60.7938798,6.01008572 61.12,6.19 L61.12,6.19 C61.2783749,6.27830275 61.3949224,6.42620273 61.4437443,6.60083493 C61.4925662,6.77546714 61.4696183,6.96236581 61.38,7.12 L61.38,7.12 C61.2641745,7.33773847 61.0366133,7.47273241 60.79,7.47 L60.79,7.47 C60.6757193,7.47659861 60.5617604,7.45242551 60.46,7.4 L60.46,7.38 Z" id="Shape-path"></path>
            <path d="M22.92,5.89 C22.7617,5.55010555 22.9038014,5.14600483 23.24,4.98 L23.24,4.98 C23.5798944,4.82170002 23.9839952,4.96380138 24.15,5.3 L24.15,5.3 C24.3083,5.63989445 24.1661986,6.04399517 23.83,6.21 L23.83,6.21 C23.740926,6.25779095 23.6410671,6.28189483 23.54,6.28 L23.54,6.28 C23.2763816,6.27712447 23.0367365,6.12637998 22.92,5.89 L22.92,5.89 Z" id="Shape-path"></path>
            <path d="M56.66,5.52 L56.66,5.52 C56.3182069,5.38129421 56.1528184,4.99240767 56.29,4.65 L56.29,4.65 L56.29,4.65 C56.4287058,4.30820691 56.8175923,4.14281839 57.16,4.28 L57.16,4.28 C57.3273691,4.34835054 57.460013,4.48143784 57.5278048,4.64903403 C57.5955965,4.81663023 57.5927818,5.00450978 57.52,5.17 L57.52,5.17 C57.41366,5.42268787 57.1641047,5.5850969 56.89,5.58 L56.89,5.58 C56.8100133,5.57609281 56.7317024,5.55566387 56.66,5.52 L56.66,5.52 Z" id="Shape-path"></path>
            <path d="M26.87,4.17 C26.8089798,4.00026242 26.8178971,3.81323529 26.8947895,3.65007323 C26.971682,3.48691118 27.1102492,3.36098346 27.28,3.3 L27.28,3.3 C27.4497376,3.23897983 27.6367647,3.24789708 27.7999268,3.32478955 C27.9630888,3.40168201 28.0890165,3.54024922 28.15,3.71 L28.15,3.71 C28.2777021,4.06613066 28.0948113,4.45867669 27.74,4.59 L27.51,4.59 C27.2289725,4.6006519 26.9720634,4.43205533 26.87,4.17 Z" id="Shape-path"></path>
            <path d="M52.69,4.07 L52.69,4.07 C52.3296486,3.95511638 52.1289451,3.57154973 52.24,3.21 L52.24,3.21 C52.2930264,3.03759783 52.4123765,2.89332648 52.5717877,2.80893232 C52.7311989,2.72453815 52.9176093,2.7069363 53.09,2.76 L53.09,2.76 C53.2612172,2.8088303 53.4059577,2.92380119 53.4922643,3.07952823 C53.5785708,3.23525526 53.599345,3.41893041 53.55,3.59 L53.55,3.59 L53.55,3.59 C53.4658165,3.87929886 53.2012956,4.07870692 52.9,4.08 L52.9,4.08 L52.69,4.07 Z" id="Shape-path"></path>
            <path d="M31,2.88 C30.9121547,2.51557345 31.1358027,2.14879077 31.5,2.06 L31.5,2.06 C31.8644265,1.97215468 32.2312092,2.19580265 32.32,2.56 L32.32,2.56 C32.4019684,2.92898376 32.1762062,3.29640066 31.81,3.39 L31.65,3.39 C31.3430566,3.38619874 31.0767182,3.17722549 31,2.88 L31,2.88 Z" id="Shape-path"></path>
            <path d="M48.59,3 C48.4119784,2.96613714 48.2548366,2.86261831 48.1534525,2.71241959 C48.0520683,2.56222087 48.0148291,2.37776784 48.05,2.2 L48.05,2.2 C48.0838629,2.02197835 48.1873817,1.8648366 48.3375804,1.76345246 C48.4877791,1.66206832 48.6722322,1.62482908 48.85,1.66 L48.85,1.66 C49.0280216,1.69386286 49.1851634,1.79738169 49.2865475,1.94758041 C49.3879317,2.09777913 49.4251709,2.28223216 49.39,2.46 L49.39,2.46 C49.3313207,2.78257102 49.0478221,3.01529378 48.72,3.01 L48.59,3.01 L48.59,3 Z" id="Shape-path"></path>
            <path d="M35.19,2 C35.1673661,1.82096315 35.2168275,1.64027182 35.3274905,1.4977229 C35.4381535,1.35517399 35.6009412,1.26245964 35.78,1.24 L35.78,1.24 C35.9564442,1.21432224 36.1358458,1.26003417 36.2784881,1.36701587 C36.4211304,1.47399757 36.5152463,1.6334238 36.54,1.81 L36.54,1.81 L36.54,1.81 C36.5626339,1.98903685 36.5131725,2.16972818 36.4025095,2.3122771 C36.2918465,2.45482601 36.1290588,2.54754036 35.95,2.57 L35.87,2.57 C35.5364828,2.5662687 35.2519219,2.32773974 35.19,2 L35.19,2 Z" id="Shape-path"></path>
            <path d="M44.4,2.42001566 C44.0279577,2.38816629 43.7511845,2.06228828 43.78,1.69 L43.78,1.69 C43.8118337,1.31795765 44.1377117,1.04118455 44.51,1.07 L44.51,1.07 C44.8820423,1.10183371 45.1588155,1.42771172 45.13,1.8 L45.13,1.8 C45.0988274,2.15194255 44.8033177,2.42137783 44.45,2.42001566 L44.4,2.42001566 Z" id="Shape-path"></path>
            <path d="M39.48,1.62 C39.4718648,1.43888969 39.5374709,1.2622133 39.6618402,1.13030648 C39.7862095,0.99839967 39.9587246,0.92252325 40.14,0.92 L40.14,0.92 C40.3211103,0.91186485 40.4977867,0.97747092 40.6296935,1.10184021 C40.7616003,1.22620949 40.8374768,1.39872463 40.84,1.58 L40.84,1.58 C40.8453842,1.75771695 40.779909,1.93028645 40.6579937,2.05970424 C40.5360784,2.18912202 40.3677217,2.26477413 40.19,2.27 L40.19,2.27 C39.8309876,2.28170988 39.5266153,2.0082159 39.5,1.65 L39.48,1.62 Z" id="Shape-path"></path>
        </g>
    </g>
</svg>