<?xml version="1.0" encoding="UTF-8"?>
<svg width="362px" height="105px" viewBox="0 0 362 105" version="1.1" xmlns="http://www.w3.org/2000/svg" xmlns:xlink="http://www.w3.org/1999/xlink">
    <title>tmwr</title>
    <g id="Page-1" stroke="none" stroke-width="1" fill="none" fill-rule="evenodd">
        <g id="tmwr" fill="#FFFFFF" fill-rule="nonzero">
            <path d="M38.4,0 L12.1,0 L12.1,19.7 L0,19.7 L0,43 L12.1,43 L12.1,72.5 C12.1,84.9 14.8,93 20.7,98 C25.6,102.2 32.4,104.2 41.9,104.2 C46.2,104.2 51,103.8 56.3,103 L58.1,102.7 L58.1,80.5 L55.9,80.6 C47.6,81 42,81.1 39.9,79.2 C39.2,78.6 38.4,77.3 38.4,73.2 L38.4,43 L58.1,43 L58.1,19.7 L38.4,19.7 L38.4,0 Z" id="Path"></path>
            <path d="M149.9,18.2 C141,18.2 133.6,21.5 128.8,27.5 C124.1,21.5 116.8,18.2 107.8,18.2 C99.9,18.2 93.4,20.7 88.7,25.5 L86.3,19.7 L66.1,19.7 L66.1,103 L92.4,103 L92.4,48.3 C92.4,43.8 95.2,41.5 100.6,41.5 C108.7,41.5 108.7,46.6 108.7,48.3 L108.7,103 L135,103 L135,48.3 C135,43.8 137.8,41.5 143.2,41.5 C151.3,41.5 151.3,46.6 151.3,48.3 L151.3,103 L177.6,103 L177.6,48.7 C177.4,29.6 167.1,18.2 149.9,18.2 Z" id="Path"></path>
            <path d="M207.7,26.8 L204.8,19.8 L184.6,19.8 L184.6,103 L210.9,103 L210.9,50.3 C210.9,48.5 211.5,47 212.9,45.8 C216.4,42.7 224.3,41.7 235.1,42.9 L237.5,43.2 L237.5,19.4 L235.9,19 C225.2,16.6 215,19.5 207.7,26.8 Z" id="Path"></path>
            <polygon id="Path" points="336 19.7 325.3 64.6 315.1 19.7 289.7 19.7 279.4 64.6 268.8 19.7 241.6 19.7 264.1 103 292.2 103 301.6 63.8 311.2 103 339.2 103 361.8 19.7"></polygon>
        </g>
    </g>
</svg>