<svg width="160" height="291" viewBox="0 0 160 291" fill="none" xmlns="http://www.w3.org/2000/svg">
<mask id="path-1-inside-1_557:3" fill="#404040">
<path fill-rule="evenodd" clip-rule="evenodd" d="M68 0C58.8873 0 51.5 7.3873 51.5 16.5V70.5H32C14.3269 70.5 0 84.8269 0 102.5V258.5C0 276.173 14.3269 290.5 32 290.5H128C145.673 290.5 160 276.173 160 258.5V102.5C160 84.8269 145.673 70.5 128 70.5H108.5V16.5C108.5 7.3873 101.113 0 92 0H68ZM107.5 70.5V16.5C107.5 7.93959 100.56 1 92 1H68C59.4396 1 52.5 7.93959 52.5 16.5V70.5H107.5Z"/>
</mask>
<path d="M51.5 70.5V71.5H52.5V70.5H51.5ZM108.5 70.5H107.5V71.5H108.5V70.5ZM107.5 70.5V71.5H108.5V70.5H107.5ZM52.5 70.5H51.5V71.5H52.5V70.5ZM52.5 16.5C52.5 7.93959 59.4396 1 68 1V-1C58.335 -1 50.5 6.83502 50.5 16.5H52.5ZM52.5 70.5V16.5H50.5V70.5H52.5ZM32 71.5H51.5V69.5H32V71.5ZM1 102.5C1 85.3792 14.8792 71.5 32 71.5V69.5C13.7746 69.5 -1 84.2746 -1 102.5H1ZM1 258.5V102.5H-1V258.5H1ZM32 289.5C14.8792 289.5 1 275.621 1 258.5H-1C-1 276.725 13.7746 291.5 32 291.5V289.5ZM128 289.5H32V291.5H128V289.5ZM159 258.5C159 275.621 145.121 289.5 128 289.5V291.5C146.225 291.5 161 276.725 161 258.5H159ZM159 102.5V258.5H161V102.5H159ZM128 71.5C145.121 71.5 159 85.3792 159 102.5H161C161 84.2746 146.225 69.5 128 69.5V71.5ZM108.5 71.5H128V69.5H108.5V71.5ZM107.5 16.5V70.5H109.5V16.5H107.5ZM92 1C100.56 1 107.5 7.93959 107.5 16.5H109.5C109.5 6.83502 101.665 -1 92 -1V1ZM68 1H92V-1H68V1ZM108.5 70.5V16.5H106.5V70.5H108.5ZM108.5 16.5C108.5 7.3873 101.113 0 92 0V2C100.008 2 106.5 8.49187 106.5 16.5H108.5ZM92 0H68V2H92V0ZM68 0C58.8873 0 51.5 7.3873 51.5 16.5H53.5C53.5 8.49187 59.9919 2 68 2V0ZM51.5 16.5V70.5H53.5V16.5H51.5ZM52.5 71.5H107.5V69.5H52.5V71.5Z" fill="#404040" mask="url(#path-1-inside-1_557:3)"/>
</svg>
