<?xml version="1.0" encoding="UTF-8"?>
<svg width="188px" height="49px" viewBox="0 0 188 49" version="1.1" xmlns="http://www.w3.org/2000/svg" xmlns:xlink="http://www.w3.org/1999/xlink">
    <title>vogue</title>
    <g id="Page-1" stroke="none" stroke-width="1" fill="none" fill-rule="evenodd">
        <g id="vogue" fill-rule="nonzero">
            <path d="M55.842,48.688 C50.368,48.688 45.132,45.622 41.742,41.434 C37.879,36.674 35.997,30.522 35.997,24.438 C35.997,18.592 37.726,12.711 41.301,8.051 C44.826,3.476 50.13,0.205 56.028,0.205 C61.451,0.205 66.653,3.307 69.992,7.441 C73.839,12.203 75.754,18.371 75.754,24.456 C75.754,30.284 74.008,36.165 70.449,40.825 C66.959,45.365 61.688,48.688 55.842,48.688 L55.842,48.688 Z M0.834,1.205 L17.323,1.205 L17.323,1.678 L13.273,1.678 L25.576,35.367 L35.964,1.678 L31.88,1.678 L31.88,1.205 L40.777,1.205 L40.777,1.678 L36.845,1.678 L22.204,48.246 L5.173,1.678 L0.834,1.678 L0.834,1.205 Z M111.85,0.391 L111.85,16.575 L111.477,16.575 C110.782,13.389 109.799,10.288 108.088,7.475 C106.055,4.187 102.818,0.494 98.598,0.494 C88.905,0.494 88.024,17.864 88.024,24.49 C88.024,30.422 88.498,36.539 90.65,42.097 C92.158,45.995 94.344,47.909 98.395,47.909 C101.614,47.909 105.038,46.282 106.749,43.485 C107.19,42.756 107.224,41.944 107.224,41.114 L107.224,28.606 L102.988,28.606 L102.988,28.116 L118.494,28.116 L118.494,28.606 L114.867,28.606 L114.867,47.315 L114.547,47.315 C113.631,45.79 112.19,44.79 110.344,44.79 C109.004,44.79 107.699,45.265 106.532,45.909 L105.481,46.485 C103.108,47.536 100.836,48.297 98.21,48.297 C86.179,48.297 79.773,35.469 79.773,24.828 C79.773,17.049 82.739,8.728 89.043,3.865 C91.873,1.678 95.296,0.069 98.939,0.069 C100.363,0.069 101.769,0.509 103.091,1.035 L104.058,1.408 C105.16,1.815 106.363,2.204 107.548,2.204 C109.023,2.204 110.345,1.238 111.48,0.391 L111.85,0.391 L111.85,0.391 Z M116.477,1.205 L133.016,1.205 L133.016,1.679 L128.627,1.679 L128.627,37.589 C128.627,43.214 134.422,46.638 139.488,46.638 C144.945,46.638 149.537,42.843 149.537,37.267 L149.537,1.678 L144.353,1.678 L144.353,1.204 L187.041,1.204 L187.041,17.862 L186.719,17.862 C186.227,13.456 185.379,8.931 182.346,5.491 C179.28,2.017 175.11,1.678 170.823,1.678 L166.198,1.678 L166.198,23.099 C167.145,23.2 168.112,23.268 169.079,23.268 C174.891,23.268 176.399,19.269 176.653,14.32 L177.077,14.32 L177.077,33.113 L176.653,33.113 C175.924,28.623 173.942,23.81 168.671,23.81 C167.841,23.81 167.028,23.861 166.198,23.929 L166.198,46.84 L173.128,46.84 C176.722,46.84 180.296,45.281 182.839,42.774 C185.007,40.639 186.517,37.86 187.042,34.86 C187.329,33.182 187.466,31.471 187.55,29.776 L187.923,29.776 L187.923,47.315 L154.556,47.315 L154.556,46.84 L158.437,46.84 L158.437,1.678 L150.234,1.678 L150.234,37.402 C150.234,44.789 143.218,48.06 136.644,48.06 C129.205,48.06 121.001,44.451 121.001,35.943 L121.001,1.678 L116.478,1.678 L116.478,1.205 L116.477,1.205 L116.477,1.205 Z" id="Shape" fill="#FFFFFF"></path>
            <path d="M55.876,0.899 C46.742,0.899 44.369,17.693 44.369,24.438 C44.369,31.182 46.759,47.993 55.876,47.993 C64.976,47.992 67.382,31.166 67.382,24.438 C67.382,17.71 64.976,0.899 55.876,0.899 Z" id="Path" fill="#000000"></path>
        </g>
    </g>
</svg>