<svg version="1.1" xmlns="http://www.w3.org/2000/svg" xmlns:xlink="http://www.w3.org/1999/xlink" x="0px" y="0px" width="110.8px"
	 height="110.8px" viewBox="0 0 110.8 110.8" style="overflow:visible;enable-background:new 0 0 110.8 110.8;"
	 xml:space="preserve">
<style type="text/css">
	.st0{fill:#b7b7b7;}
</style>
<defs>
</defs>
<path class="st0" d="M93.7,87.1c-3.5-2.8-7.8-5.1-12.6-6.9c2-6.7,3.1-14.2,3.4-22.1h20.6C104.4,69.1,100.3,79.2,93.7,87.1L93.7,87.1
	z M68.3,103.3c4.4-4.4,8.2-10.5,10.9-17.7c4,1.5,7.6,3.4,10.5,5.6C83.8,96.9,76.5,101.1,68.3,103.3L68.3,103.3z M58.3,103.8V81.6
	c5.5,0.2,10.8,1,15.6,2.3C70.2,93.5,64.7,100.7,58.3,103.8L58.3,103.8z M58.3,58.2h20.5c-0.2,7.3-1.3,14.2-3.1,20.4
	c-5.4-1.5-11.3-2.4-17.4-2.6V58.2z M58.3,34.8c6.1-0.2,12-1.1,17.4-2.6c1.8,6.2,2.9,13.1,3.1,20.4H58.2L58.3,34.8z M58.3,6.9
	c6.5,3.2,12,10.4,15.6,19.9c-4.9,1.3-10.2,2.1-15.6,2.3V6.9z M89.8,19.4c-2.9,2.2-6.5,4.1-10.5,5.6c-2.8-7.2-6.5-13.3-10.9-17.7
	C76.5,9.5,83.8,13.8,89.8,19.4L89.8,19.4z M105,52.5H84.4l0,0C84.2,44.6,83,37.1,81,30.4c4.8-1.8,9-4.1,12.6-6.9
	C100.3,31.5,104.4,41.5,105,52.5L105,52.5z M52.6,29.1c-5.5-0.2-10.8-1-15.6-2.3c3.7-9.6,9.2-16.8,15.6-19.9V29.1z M52.6,52.5H32
	c0.2-7.3,1.3-14.2,3.1-20.4c5.4,1.5,11.3,2.4,17.4,2.6L52.6,52.5z M52.6,75.9c-6.1,0.2-12,1.1-17.4,2.6c-1.8-6.2-2.9-13.1-3.1-20.4
	h20.6L52.6,75.9z M52.6,103.8c-6.5-3.2-12-10.4-15.6-19.9c4.9-1.3,10.2-2.1,15.6-2.3V103.8z M21.1,91.2c2.9-2.2,6.5-4.1,10.5-5.6
	c2.8,7.2,6.5,13.3,10.9,17.7C34.4,101.1,27,96.9,21.1,91.2L21.1,91.2z M5.8,58.2h20.6c0.2,7.9,1.4,15.4,3.4,22.1
	c-4.8,1.8-9,4.1-12.6,6.9C10.6,79.2,6.4,69.1,5.8,58.2L5.8,58.2z M17.2,23.6c3.5,2.8,7.8,5.1,12.6,6.9c-2,6.7-3.1,14.2-3.4,22.1H5.8
	C6.4,41.6,10.6,31.5,17.2,23.6L17.2,23.6z M42.5,7.3c-4.4,4.4-8.2,10.5-10.9,17.7c-4-1.5-7.6-3.4-10.5-5.6
	C27,13.8,34.4,9.5,42.5,7.3L42.5,7.3z M55.4,0C24.9,0,0,24.8,0,55.4s24.8,55.4,55.4,55.4s55.4-24.9,55.4-55.5S86,0,55.4,0z"/>
</svg>
