<svg version="1.1" xmlns="http://www.w3.org/2000/svg" xmlns:xlink="http://www.w3.org/1999/xlink" x="0px" y="0px" width="157.5px"
	 height="16px" viewBox="0 0 157.5 16" style="overflow:visible;enable-background:new 0 0 157.5 16;" xml:space="preserve">
<style type="text/css">
	.st0{fill:#fff;}
</style>
<defs>
</defs>
<g>
	<path class="st0" d="M0,16V0h3.9v12.5h10.3V16H0z"/>
	<path class="st0" d="M33.2,12.2c0,2.2-1.6,3.8-3.8,3.8H20c-2.2,0-3.8-1.5-3.8-3.8V3.8C16.2,1.5,17.7,0,20,0h9.5
		c2.2,0,3.8,1.5,3.8,3.8V12.2z M20.8,3.5c-0.5,0-0.6,0.1-0.6,0.6V12c0,0.4,0.1,0.6,0.6,0.6h8.1c0.5,0,0.6-0.1,0.6-0.6V4.1
		c0-0.5-0.1-0.6-0.6-0.6H20.8z"/>
	<path class="st0" d="M54.3,12.2c0,2.2-1.6,3.8-3.8,3.8H41c-2.2,0-3.8-1.5-3.8-3.8V3.8C37.2,1.5,38.7,0,41,0h9.5
		c2.2,0,3.8,1.5,3.8,3.8V12.2z M41.8,3.5c-0.5,0-0.6,0.1-0.6,0.6V12c0,0.4,0.1,0.6,0.6,0.6h8.1c0.5,0,0.6-0.1,0.6-0.6V4.1
		c0-0.5-0.1-0.6-0.6-0.6H41.8z"/>
	<path class="st0" d="M70.6,16l-8.2-7.4V16h-3.9V0h3.9v6.8L69.9,0h5l-8.2,7.4l9.6,8.6H70.6z"/>
	<path class="st0" d="M85.4,16V0h3.9v12.5h10.3V16H85.4z"/>
	<path class="st0" d="M116,16l-1.4-2.8h-8.7l-1.4,2.8h-4.2l8.3-16h3.5l8.2,16H116z M110.3,4l-2.9,5.9h5.8L110.3,4z"/>
	<path class="st0" d="M138.1,12.4c0,2.1-0.9,3.6-3.6,3.6h-12.3V0H134c2.8,0,3.9,1.6,3.9,3.5v1.7c0,1.2-0.5,1.7-1,2.1
		c-0.3,0.2-0.6,0.3-0.9,0.4c0.4,0.1,0.7,0.2,1.1,0.4c0.6,0.4,1.1,1,1.1,2.2V12.4z M134,4.4c0-0.7-0.2-1-0.9-1h-6.9v2.9h6.9
		c0.7,0,0.9-0.3,0.9-0.9V4.4z M134.2,10.3c0-0.7-0.2-1-0.9-1h-7.1v3.3h7.1c0.7,0,0.9-0.3,0.9-0.9V10.3z"/>
	<path class="st0" d="M157.5,12.2c0,2.3-0.9,3.8-3.8,3.8H145c-2.6,0-3.7-1.4-3.7-3.6v-0.7l3.9-0.6v1.5h7.8c0.5,0,0.5-0.2,0.5-0.6
		v-1.7c0-0.4-0.1-0.6-0.6-0.6h-7.6c-2.7,0-3.7-1.5-3.7-3.5V3.8c0-2.9,1.3-3.8,3.8-3.8h8.2c3,0,3.9,1.4,3.9,3.6v0.6l-3.9,0.6V3.5
		h-7.4c-0.4,0-0.6,0.1-0.6,0.6v1.7c0,0.4,0.1,0.5,0.6,0.5h7.6c2.7,0,3.7,1.5,3.7,3.6V12.2z"/>
</g>
</svg>
